G75*
%MOIN*%
%OFA0B0*%
%FSLAX25Y25*%
%IPPOS*%
%LPD*%
%AMOC8*
5,1,8,0,0,1.08239X$1,22.5*
%
%ADD10C,0.00000*%
%ADD11OC8,0.05200*%
%ADD12C,0.05200*%
%ADD13C,0.05150*%
%ADD14C,0.11220*%
%ADD15C,0.05200*%
%ADD16C,0.05937*%
%ADD17C,0.07400*%
%ADD18C,0.01600*%
%ADD19R,0.03562X0.03562*%
D10*
X0005060Y0001800D02*
X0005060Y0198650D01*
X0201910Y0198650D01*
X0201910Y0001800D01*
X0005060Y0001800D01*
D11*
X0040375Y0038670D03*
X0052560Y0038670D03*
X0052560Y0078670D03*
X0040375Y0078670D03*
X0054745Y0122725D03*
X0054745Y0132725D03*
X0107560Y0174300D03*
X0117560Y0174300D03*
X0117560Y0186800D03*
X0112560Y0194300D03*
X0107560Y0186800D03*
X0131005Y0189576D03*
X0131005Y0179576D03*
X0142540Y0180855D03*
X0142540Y0190855D03*
X0162560Y0191800D03*
X0177245Y0186800D03*
X0187245Y0186800D03*
X0197560Y0159300D03*
X0157560Y0159300D03*
X0162560Y0081800D03*
X0170060Y0016800D03*
X0130060Y0016800D03*
X0117875Y0017135D03*
X0107875Y0017135D03*
D12*
X0142560Y0081800D03*
X0162560Y0171800D03*
D13*
X0085119Y0189300D03*
X0077245Y0189300D03*
X0069371Y0189300D03*
X0033859Y0164221D03*
X0030710Y0168946D03*
X0027560Y0164221D03*
X0024410Y0168946D03*
X0021261Y0164221D03*
D14*
X0013190Y0184300D03*
X0041930Y0184300D03*
D15*
X0094035Y0162745D02*
X0099235Y0162745D01*
X0099235Y0152745D02*
X0094035Y0152745D01*
X0094035Y0142745D02*
X0099235Y0142745D01*
X0099235Y0132745D02*
X0094035Y0132745D01*
X0094035Y0122745D02*
X0099235Y0122745D01*
X0099235Y0112745D02*
X0094035Y0112745D01*
X0094035Y0102745D02*
X0099235Y0102745D01*
X0099235Y0092745D02*
X0094035Y0092745D01*
X0094035Y0082745D02*
X0099235Y0082745D01*
X0099235Y0072745D02*
X0094035Y0072745D01*
X0094035Y0062745D02*
X0099235Y0062745D01*
X0099235Y0052745D02*
X0094035Y0052745D01*
X0094035Y0042745D02*
X0099235Y0042745D01*
X0099235Y0032745D02*
X0094035Y0032745D01*
X0124035Y0032745D02*
X0129235Y0032745D01*
X0129235Y0042745D02*
X0124035Y0042745D01*
X0124035Y0052745D02*
X0129235Y0052745D01*
X0129235Y0062745D02*
X0124035Y0062745D01*
X0124035Y0072745D02*
X0129235Y0072745D01*
X0129235Y0082745D02*
X0124035Y0082745D01*
X0124035Y0092745D02*
X0129235Y0092745D01*
X0129235Y0102745D02*
X0124035Y0102745D01*
X0124035Y0112745D02*
X0129235Y0112745D01*
X0129235Y0122745D02*
X0124035Y0122745D01*
X0124035Y0132745D02*
X0129235Y0132745D01*
X0129235Y0142745D02*
X0124035Y0142745D01*
X0124035Y0152745D02*
X0129235Y0152745D01*
X0129235Y0162745D02*
X0124035Y0162745D01*
D16*
X0092993Y0189300D03*
X0061497Y0189300D03*
D17*
X0010060Y0136800D03*
X0010060Y0126800D03*
X0010060Y0116800D03*
X0010060Y0106800D03*
X0010060Y0096800D03*
X0010060Y0086800D03*
X0010060Y0076800D03*
X0010060Y0066800D03*
X0010060Y0056800D03*
X0010060Y0046800D03*
X0010060Y0036800D03*
X0010060Y0026800D03*
X0010060Y0016800D03*
X0031950Y0016485D03*
X0051950Y0016485D03*
X0068190Y0016800D03*
X0088190Y0016800D03*
X0082560Y0066800D03*
X0082560Y0076800D03*
X0082560Y0086800D03*
X0197060Y0086800D03*
X0197060Y0076800D03*
X0197060Y0066800D03*
X0197060Y0096800D03*
X0197060Y0106800D03*
X0197060Y0116800D03*
X0197060Y0126800D03*
X0197060Y0136800D03*
D18*
X0197110Y0159300D02*
X0197110Y0176935D01*
X0187245Y0186800D01*
X0177245Y0186800D02*
X0177245Y0186485D01*
X0162560Y0171800D01*
X0143505Y0190855D01*
X0142540Y0190855D01*
X0121141Y0169444D02*
X0121141Y0168239D01*
X0126635Y0162745D01*
X0126635Y0161285D01*
X0133435Y0154485D01*
X0133435Y0121005D01*
X0126635Y0114205D01*
X0126635Y0112745D01*
X0126635Y0111285D01*
X0133435Y0104485D01*
X0133435Y0081005D01*
X0130975Y0078545D01*
X0123895Y0078545D01*
X0119835Y0074485D01*
X0119835Y0066575D01*
X0117560Y0064300D01*
X0087860Y0068995D02*
X0087860Y0017130D01*
X0088190Y0016800D01*
X0077560Y0024300D02*
X0077560Y0044300D01*
X0072560Y0049300D01*
X0067560Y0049300D01*
X0065060Y0051800D01*
X0065060Y0079595D01*
X0064115Y0080540D01*
X0070060Y0076800D02*
X0070060Y0106800D01*
X0086005Y0122745D01*
X0096635Y0122745D01*
X0096635Y0132745D02*
X0086962Y0132745D01*
X0062560Y0108343D01*
X0065060Y0121800D02*
X0065060Y0184989D01*
X0069371Y0189300D01*
X0077245Y0189300D02*
X0077245Y0164615D01*
X0077560Y0164300D01*
X0040060Y0124300D02*
X0042560Y0121800D01*
X0042560Y0096800D01*
X0042560Y0089300D02*
X0040060Y0089300D01*
X0042560Y0089300D02*
X0042560Y0082425D01*
X0044575Y0080410D01*
X0044575Y0046655D01*
X0052560Y0038670D01*
X0052560Y0032430D01*
X0068190Y0016800D01*
X0062560Y0041800D02*
X0052560Y0051800D01*
X0052560Y0078670D01*
X0027560Y0063274D02*
X0025060Y0065774D01*
X0025060Y0108343D01*
X0025060Y0124300D02*
X0025060Y0161721D01*
X0027560Y0164221D01*
X0023861Y0168396D02*
X0019531Y0168396D01*
X0017086Y0165951D01*
X0017086Y0162492D01*
X0017560Y0147018D01*
X0022560Y0031800D01*
X0015360Y0034605D02*
X0015360Y0068995D01*
X0010060Y0074295D01*
X0010060Y0076800D01*
X0032560Y0041170D02*
X0037875Y0041170D01*
X0040375Y0038670D01*
X0032560Y0041170D02*
X0032560Y0158045D01*
X0023861Y0168396D02*
X0024410Y0168946D01*
X0112560Y0119300D02*
X0112560Y0031800D01*
X0087860Y0068995D02*
X0082560Y0074295D01*
X0082560Y0076800D01*
X0119835Y0111005D02*
X0119835Y0164525D01*
X0117560Y0166800D01*
X0121141Y0169444D02*
X0117560Y0173025D01*
X0117560Y0174300D01*
X0117560Y0186800D01*
X0119835Y0111005D02*
X0126635Y0104205D01*
X0126635Y0102745D01*
X0170060Y0106800D02*
X0170060Y0071800D01*
X0177560Y0066800D02*
X0177560Y0096800D01*
X0182560Y0086800D02*
X0182560Y0059300D01*
X0190060Y0054300D02*
X0191760Y0056000D01*
X0191760Y0068995D01*
X0197060Y0074295D01*
X0197060Y0076800D01*
X0032560Y0041170D02*
X0032560Y0017095D01*
X0031950Y0016485D01*
X0015360Y0034605D02*
X0010060Y0029305D01*
X0010060Y0026800D01*
D19*
X0022560Y0031800D03*
X0027560Y0063274D03*
X0040060Y0089300D03*
X0042560Y0096800D03*
X0025060Y0108343D03*
X0025060Y0124300D03*
X0040060Y0124300D03*
X0062560Y0108343D03*
X0065060Y0121800D03*
X0032560Y0158045D03*
X0077560Y0164300D03*
X0117560Y0166800D03*
X0112560Y0119300D03*
X0070060Y0076800D03*
X0064115Y0080540D03*
X0072560Y0049300D03*
X0062560Y0041800D03*
X0077560Y0024300D03*
X0112560Y0031800D03*
X0117560Y0064300D03*
X0170060Y0071800D03*
X0177560Y0066800D03*
X0182560Y0059300D03*
X0190060Y0054300D03*
X0182560Y0086800D03*
X0177560Y0096800D03*
X0170060Y0106800D03*
M02*
