%
M48
M72
T01C0.02362
T02C0.03150
T03C0.03200
T04C0.03937
T05C0.04000
T06C0.07480
%
T01
X22560Y31800
X27560Y63274
X40060Y89300
X42560Y96800
X25060Y108343
X25060Y124300
X40060Y124300
X62560Y108343
X65060Y121800
X32560Y158045
X77560Y164300
X117560Y166800
X112560Y119300
X70060Y76800
X64115Y80540
X72560Y49300
X62560Y41800
X77560Y24300
X112560Y31800
X117560Y64300
X170060Y71800
X177560Y66800
X182560Y59300
X190060Y54300
X182560Y86800
X177560Y96800
X170060Y106800
T02
X24410Y168946
X21261Y164221
X27560Y164221
X30710Y168946
X33859Y164221
X69371Y189300
X77245Y189300
X85119Y189300
T03
X54745Y132725
X54745Y122725
X96635Y122745
X96635Y112745
X96635Y102745
X96635Y92745
X96635Y82745
X96635Y72745
X96635Y62745
X96635Y52745
X96635Y42745
X96635Y32745
X107875Y17135
X117875Y17135
X130060Y16800
X126635Y32745
X126635Y42745
X126635Y52745
X126635Y62745
X126635Y72745
X126635Y82745
X126635Y92745
X126635Y102745
X126635Y112745
X126635Y122745
X126635Y132745
X126635Y142745
X126635Y152745
X126635Y162745
X117560Y174300
X107560Y174300
X107560Y186800
X112560Y194300
X117560Y186800
X131005Y189576
X131005Y179576
X142540Y180855
X142540Y190855
X162560Y191800
X177245Y186800
X187245Y186800
X162560Y171800
X157560Y159300
X197560Y159300
X162560Y81800
X142560Y81800
X96635Y132745
X96635Y142745
X96635Y152745
X96635Y162745
X52560Y78670
X40375Y78670
X40375Y38670
X52560Y38670
X170060Y16800
T04
X61497Y189300
X92993Y189300
T05
X10060Y136800
X10060Y126800
X10060Y116800
X10060Y106800
X10060Y96800
X10060Y86800
X10060Y76800
X10060Y66800
X10060Y56800
X10060Y46800
X10060Y36800
X10060Y26800
X10060Y16800
X31950Y16485
X51950Y16485
X68190Y16800
X88190Y16800
X82560Y66800
X82560Y76800
X82560Y86800
X197060Y86800
X197060Y76800
X197060Y66800
X197060Y96800
X197060Y106800
X197060Y116800
X197060Y126800
X197060Y136800
T06
X13190Y184300
X41930Y184300
M30
