G75*
%MOIN*%
%OFA0B0*%
%FSLAX25Y25*%
%IPPOS*%
%LPD*%
%AMOC8*
5,1,8,0,0,1.08239X$1,22.5*
%
%ADD10C,0.00000*%
%ADD11C,0.00600*%
%ADD12C,0.01000*%
%ADD13C,0.00500*%
%ADD14R,0.02000X0.10000*%
%ADD15R,0.10000X0.02000*%
%ADD16C,0.00400*%
%ADD17R,0.03400X0.02400*%
%ADD18R,0.02400X0.03400*%
%ADD19C,0.00700*%
%ADD20C,0.01600*%
%ADD21C,0.00800*%
D10*
X0005060Y0001800D02*
X0005060Y0198650D01*
X0201910Y0198650D01*
X0201910Y0001800D01*
X0005060Y0001800D01*
D11*
X0036875Y0046170D02*
X0043875Y0046170D01*
X0043935Y0046172D01*
X0043996Y0046177D01*
X0044055Y0046186D01*
X0044114Y0046199D01*
X0044173Y0046215D01*
X0044230Y0046235D01*
X0044285Y0046258D01*
X0044340Y0046285D01*
X0044392Y0046314D01*
X0044443Y0046347D01*
X0044492Y0046383D01*
X0044538Y0046421D01*
X0044582Y0046463D01*
X0044624Y0046507D01*
X0044662Y0046553D01*
X0044698Y0046602D01*
X0044731Y0046653D01*
X0044760Y0046705D01*
X0044787Y0046760D01*
X0044810Y0046815D01*
X0044830Y0046872D01*
X0044846Y0046931D01*
X0044859Y0046990D01*
X0044868Y0047049D01*
X0044873Y0047110D01*
X0044875Y0047170D01*
X0044875Y0048670D01*
X0044375Y0049170D01*
X0044375Y0068170D01*
X0044875Y0068670D01*
X0044875Y0070170D01*
X0044873Y0070230D01*
X0044868Y0070291D01*
X0044859Y0070350D01*
X0044846Y0070409D01*
X0044830Y0070468D01*
X0044810Y0070525D01*
X0044787Y0070580D01*
X0044760Y0070635D01*
X0044731Y0070687D01*
X0044698Y0070738D01*
X0044662Y0070787D01*
X0044624Y0070833D01*
X0044582Y0070877D01*
X0044538Y0070919D01*
X0044492Y0070957D01*
X0044443Y0070993D01*
X0044392Y0071026D01*
X0044340Y0071055D01*
X0044285Y0071082D01*
X0044230Y0071105D01*
X0044173Y0071125D01*
X0044114Y0071141D01*
X0044055Y0071154D01*
X0043996Y0071163D01*
X0043935Y0071168D01*
X0043875Y0071170D01*
X0036875Y0071170D01*
X0036815Y0071168D01*
X0036754Y0071163D01*
X0036695Y0071154D01*
X0036636Y0071141D01*
X0036577Y0071125D01*
X0036520Y0071105D01*
X0036465Y0071082D01*
X0036410Y0071055D01*
X0036358Y0071026D01*
X0036307Y0070993D01*
X0036258Y0070957D01*
X0036212Y0070919D01*
X0036168Y0070877D01*
X0036126Y0070833D01*
X0036088Y0070787D01*
X0036052Y0070738D01*
X0036019Y0070687D01*
X0035990Y0070635D01*
X0035963Y0070580D01*
X0035940Y0070525D01*
X0035920Y0070468D01*
X0035904Y0070409D01*
X0035891Y0070350D01*
X0035882Y0070291D01*
X0035877Y0070230D01*
X0035875Y0070170D01*
X0035875Y0068670D01*
X0036375Y0068170D01*
X0036375Y0049170D01*
X0035875Y0048670D01*
X0035875Y0047170D01*
X0035877Y0047110D01*
X0035882Y0047049D01*
X0035891Y0046990D01*
X0035904Y0046931D01*
X0035920Y0046872D01*
X0035940Y0046815D01*
X0035963Y0046760D01*
X0035990Y0046705D01*
X0036019Y0046653D01*
X0036052Y0046602D01*
X0036088Y0046553D01*
X0036126Y0046507D01*
X0036168Y0046463D01*
X0036212Y0046421D01*
X0036258Y0046383D01*
X0036307Y0046347D01*
X0036358Y0046314D01*
X0036410Y0046285D01*
X0036465Y0046258D01*
X0036520Y0046235D01*
X0036577Y0046215D01*
X0036636Y0046199D01*
X0036695Y0046186D01*
X0036754Y0046177D01*
X0036815Y0046172D01*
X0036875Y0046170D01*
X0048060Y0047170D02*
X0048060Y0048670D01*
X0048560Y0049170D01*
X0048560Y0068170D01*
X0048060Y0068670D01*
X0048060Y0070170D01*
X0048062Y0070230D01*
X0048067Y0070291D01*
X0048076Y0070350D01*
X0048089Y0070409D01*
X0048105Y0070468D01*
X0048125Y0070525D01*
X0048148Y0070580D01*
X0048175Y0070635D01*
X0048204Y0070687D01*
X0048237Y0070738D01*
X0048273Y0070787D01*
X0048311Y0070833D01*
X0048353Y0070877D01*
X0048397Y0070919D01*
X0048443Y0070957D01*
X0048492Y0070993D01*
X0048543Y0071026D01*
X0048595Y0071055D01*
X0048650Y0071082D01*
X0048705Y0071105D01*
X0048762Y0071125D01*
X0048821Y0071141D01*
X0048880Y0071154D01*
X0048939Y0071163D01*
X0049000Y0071168D01*
X0049060Y0071170D01*
X0056060Y0071170D01*
X0056120Y0071168D01*
X0056181Y0071163D01*
X0056240Y0071154D01*
X0056299Y0071141D01*
X0056358Y0071125D01*
X0056415Y0071105D01*
X0056470Y0071082D01*
X0056525Y0071055D01*
X0056577Y0071026D01*
X0056628Y0070993D01*
X0056677Y0070957D01*
X0056723Y0070919D01*
X0056767Y0070877D01*
X0056809Y0070833D01*
X0056847Y0070787D01*
X0056883Y0070738D01*
X0056916Y0070687D01*
X0056945Y0070635D01*
X0056972Y0070580D01*
X0056995Y0070525D01*
X0057015Y0070468D01*
X0057031Y0070409D01*
X0057044Y0070350D01*
X0057053Y0070291D01*
X0057058Y0070230D01*
X0057060Y0070170D01*
X0057060Y0068670D01*
X0056560Y0068170D01*
X0056560Y0049170D01*
X0057060Y0048670D01*
X0057060Y0047170D01*
X0057058Y0047110D01*
X0057053Y0047049D01*
X0057044Y0046990D01*
X0057031Y0046931D01*
X0057015Y0046872D01*
X0056995Y0046815D01*
X0056972Y0046760D01*
X0056945Y0046705D01*
X0056916Y0046653D01*
X0056883Y0046602D01*
X0056847Y0046553D01*
X0056809Y0046507D01*
X0056767Y0046463D01*
X0056723Y0046421D01*
X0056677Y0046383D01*
X0056628Y0046347D01*
X0056577Y0046314D01*
X0056525Y0046285D01*
X0056470Y0046258D01*
X0056415Y0046235D01*
X0056358Y0046215D01*
X0056299Y0046199D01*
X0056240Y0046186D01*
X0056181Y0046177D01*
X0056120Y0046172D01*
X0056060Y0046170D01*
X0049060Y0046170D01*
X0049000Y0046172D01*
X0048939Y0046177D01*
X0048880Y0046186D01*
X0048821Y0046199D01*
X0048762Y0046215D01*
X0048705Y0046235D01*
X0048650Y0046258D01*
X0048595Y0046285D01*
X0048543Y0046314D01*
X0048492Y0046347D01*
X0048443Y0046383D01*
X0048397Y0046421D01*
X0048353Y0046463D01*
X0048311Y0046507D01*
X0048273Y0046553D01*
X0048237Y0046602D01*
X0048204Y0046653D01*
X0048175Y0046705D01*
X0048148Y0046760D01*
X0048125Y0046815D01*
X0048105Y0046872D01*
X0048089Y0046931D01*
X0048076Y0046990D01*
X0048067Y0047049D01*
X0048062Y0047110D01*
X0048060Y0047170D01*
X0101635Y0027745D02*
X0101635Y0167245D01*
X0101635Y0167745D02*
X0106635Y0167745D01*
X0104060Y0169300D02*
X0121060Y0169300D01*
X0121120Y0169302D01*
X0121181Y0169307D01*
X0121240Y0169316D01*
X0121299Y0169329D01*
X0121358Y0169345D01*
X0121415Y0169365D01*
X0121470Y0169388D01*
X0121525Y0169415D01*
X0121577Y0169444D01*
X0121628Y0169477D01*
X0121677Y0169513D01*
X0121723Y0169551D01*
X0121767Y0169593D01*
X0121809Y0169637D01*
X0121847Y0169683D01*
X0121883Y0169732D01*
X0121916Y0169783D01*
X0121945Y0169835D01*
X0121972Y0169890D01*
X0121995Y0169945D01*
X0122015Y0170002D01*
X0122031Y0170061D01*
X0122044Y0170120D01*
X0122053Y0170179D01*
X0122058Y0170240D01*
X0122060Y0170300D01*
X0122060Y0178300D01*
X0122058Y0178360D01*
X0122053Y0178421D01*
X0122044Y0178480D01*
X0122031Y0178539D01*
X0122015Y0178598D01*
X0121995Y0178655D01*
X0121972Y0178710D01*
X0121945Y0178765D01*
X0121916Y0178817D01*
X0121883Y0178868D01*
X0121847Y0178917D01*
X0121809Y0178963D01*
X0121767Y0179007D01*
X0121723Y0179049D01*
X0121677Y0179087D01*
X0121628Y0179123D01*
X0121577Y0179156D01*
X0121525Y0179185D01*
X0121470Y0179212D01*
X0121415Y0179235D01*
X0121358Y0179255D01*
X0121299Y0179271D01*
X0121240Y0179284D01*
X0121181Y0179293D01*
X0121120Y0179298D01*
X0121060Y0179300D01*
X0104060Y0179300D01*
X0104000Y0179298D01*
X0103939Y0179293D01*
X0103880Y0179284D01*
X0103821Y0179271D01*
X0103762Y0179255D01*
X0103705Y0179235D01*
X0103650Y0179212D01*
X0103595Y0179185D01*
X0103543Y0179156D01*
X0103492Y0179123D01*
X0103443Y0179087D01*
X0103397Y0179049D01*
X0103353Y0179007D01*
X0103311Y0178963D01*
X0103273Y0178917D01*
X0103237Y0178868D01*
X0103204Y0178817D01*
X0103175Y0178765D01*
X0103148Y0178710D01*
X0103125Y0178655D01*
X0103105Y0178598D01*
X0103089Y0178539D01*
X0103076Y0178480D01*
X0103067Y0178421D01*
X0103062Y0178360D01*
X0103060Y0178300D01*
X0103060Y0170300D01*
X0103062Y0170240D01*
X0103067Y0170179D01*
X0103076Y0170120D01*
X0103089Y0170061D01*
X0103105Y0170002D01*
X0103125Y0169945D01*
X0103148Y0169890D01*
X0103175Y0169835D01*
X0103204Y0169783D01*
X0103237Y0169732D01*
X0103273Y0169683D01*
X0103311Y0169637D01*
X0103353Y0169593D01*
X0103397Y0169551D01*
X0103443Y0169513D01*
X0103492Y0169477D01*
X0103543Y0169444D01*
X0103595Y0169415D01*
X0103650Y0169388D01*
X0103705Y0169365D01*
X0103762Y0169345D01*
X0103821Y0169329D01*
X0103880Y0169316D01*
X0103939Y0169307D01*
X0104000Y0169302D01*
X0104060Y0169300D01*
X0106635Y0167745D02*
X0106637Y0167605D01*
X0106643Y0167465D01*
X0106653Y0167325D01*
X0106666Y0167185D01*
X0106684Y0167046D01*
X0106706Y0166907D01*
X0106731Y0166770D01*
X0106760Y0166632D01*
X0106793Y0166496D01*
X0106830Y0166361D01*
X0106871Y0166227D01*
X0106916Y0166094D01*
X0106964Y0165962D01*
X0107016Y0165832D01*
X0107071Y0165703D01*
X0107130Y0165576D01*
X0107193Y0165450D01*
X0107259Y0165326D01*
X0107328Y0165205D01*
X0107401Y0165085D01*
X0107478Y0164967D01*
X0107557Y0164852D01*
X0107640Y0164738D01*
X0107726Y0164628D01*
X0107815Y0164519D01*
X0107907Y0164413D01*
X0108002Y0164310D01*
X0108099Y0164209D01*
X0108200Y0164112D01*
X0108303Y0164017D01*
X0108409Y0163925D01*
X0108518Y0163836D01*
X0108628Y0163750D01*
X0108742Y0163667D01*
X0108857Y0163588D01*
X0108975Y0163511D01*
X0109095Y0163438D01*
X0109216Y0163369D01*
X0109340Y0163303D01*
X0109466Y0163240D01*
X0109593Y0163181D01*
X0109722Y0163126D01*
X0109852Y0163074D01*
X0109984Y0163026D01*
X0110117Y0162981D01*
X0110251Y0162940D01*
X0110386Y0162903D01*
X0110522Y0162870D01*
X0110660Y0162841D01*
X0110797Y0162816D01*
X0110936Y0162794D01*
X0111075Y0162776D01*
X0111215Y0162763D01*
X0111355Y0162753D01*
X0111495Y0162747D01*
X0111635Y0162745D01*
X0111775Y0162747D01*
X0111915Y0162753D01*
X0112055Y0162763D01*
X0112195Y0162776D01*
X0112334Y0162794D01*
X0112473Y0162816D01*
X0112610Y0162841D01*
X0112748Y0162870D01*
X0112884Y0162903D01*
X0113019Y0162940D01*
X0113153Y0162981D01*
X0113286Y0163026D01*
X0113418Y0163074D01*
X0113548Y0163126D01*
X0113677Y0163181D01*
X0113804Y0163240D01*
X0113930Y0163303D01*
X0114054Y0163369D01*
X0114175Y0163438D01*
X0114295Y0163511D01*
X0114413Y0163588D01*
X0114528Y0163667D01*
X0114642Y0163750D01*
X0114752Y0163836D01*
X0114861Y0163925D01*
X0114967Y0164017D01*
X0115070Y0164112D01*
X0115171Y0164209D01*
X0115268Y0164310D01*
X0115363Y0164413D01*
X0115455Y0164519D01*
X0115544Y0164628D01*
X0115630Y0164738D01*
X0115713Y0164852D01*
X0115792Y0164967D01*
X0115869Y0165085D01*
X0115942Y0165205D01*
X0116011Y0165326D01*
X0116077Y0165450D01*
X0116140Y0165576D01*
X0116199Y0165703D01*
X0116254Y0165832D01*
X0116306Y0165962D01*
X0116354Y0166094D01*
X0116399Y0166227D01*
X0116440Y0166361D01*
X0116477Y0166496D01*
X0116510Y0166632D01*
X0116539Y0166770D01*
X0116564Y0166907D01*
X0116586Y0167046D01*
X0116604Y0167185D01*
X0116617Y0167325D01*
X0116627Y0167465D01*
X0116633Y0167605D01*
X0116635Y0167745D01*
X0121635Y0167745D01*
X0121635Y0027745D01*
X0101635Y0027745D01*
X0112875Y0023135D02*
X0113029Y0023133D01*
X0113183Y0023127D01*
X0113337Y0023117D01*
X0113491Y0023103D01*
X0113644Y0023086D01*
X0113796Y0023064D01*
X0113948Y0023038D01*
X0114100Y0023009D01*
X0114250Y0022975D01*
X0114400Y0022938D01*
X0114548Y0022897D01*
X0114696Y0022852D01*
X0114842Y0022803D01*
X0114987Y0022751D01*
X0115130Y0022695D01*
X0115273Y0022635D01*
X0115413Y0022572D01*
X0115552Y0022505D01*
X0115689Y0022434D01*
X0115824Y0022360D01*
X0115957Y0022283D01*
X0116089Y0022202D01*
X0116218Y0022118D01*
X0116345Y0022030D01*
X0116469Y0021939D01*
X0116591Y0021846D01*
X0116711Y0021748D01*
X0116828Y0021648D01*
X0116943Y0021545D01*
X0117055Y0021439D01*
X0117164Y0021331D01*
X0117270Y0021219D01*
X0117374Y0021105D01*
X0117474Y0020988D01*
X0117572Y0020869D01*
X0117666Y0020747D01*
X0117757Y0020622D01*
X0112875Y0011135D02*
X0112723Y0011137D01*
X0112572Y0011143D01*
X0112421Y0011152D01*
X0112269Y0011166D01*
X0112119Y0011183D01*
X0111969Y0011204D01*
X0111819Y0011229D01*
X0111670Y0011257D01*
X0111522Y0011290D01*
X0111375Y0011326D01*
X0111228Y0011365D01*
X0111083Y0011409D01*
X0110939Y0011456D01*
X0110796Y0011507D01*
X0110655Y0011561D01*
X0110514Y0011619D01*
X0110376Y0011680D01*
X0110239Y0011745D01*
X0110103Y0011814D01*
X0109970Y0011885D01*
X0109838Y0011960D01*
X0109708Y0012039D01*
X0109581Y0012120D01*
X0109455Y0012205D01*
X0109331Y0012293D01*
X0109210Y0012384D01*
X0109091Y0012478D01*
X0108975Y0012576D01*
X0108861Y0012676D01*
X0108749Y0012778D01*
X0108641Y0012884D01*
X0108535Y0012992D01*
X0108431Y0013103D01*
X0108331Y0013217D01*
X0108233Y0013333D01*
X0108139Y0013452D01*
X0112875Y0011135D02*
X0113027Y0011137D01*
X0113178Y0011143D01*
X0113329Y0011152D01*
X0113481Y0011166D01*
X0113631Y0011183D01*
X0113781Y0011204D01*
X0113931Y0011229D01*
X0114080Y0011257D01*
X0114228Y0011290D01*
X0114375Y0011326D01*
X0114522Y0011365D01*
X0114667Y0011409D01*
X0114811Y0011456D01*
X0114954Y0011507D01*
X0115095Y0011561D01*
X0115236Y0011619D01*
X0115374Y0011680D01*
X0115511Y0011745D01*
X0115647Y0011814D01*
X0115780Y0011885D01*
X0115912Y0011960D01*
X0116042Y0012039D01*
X0116169Y0012120D01*
X0116295Y0012205D01*
X0116419Y0012293D01*
X0116540Y0012384D01*
X0116659Y0012478D01*
X0116775Y0012576D01*
X0116889Y0012676D01*
X0117001Y0012778D01*
X0117109Y0012884D01*
X0117215Y0012992D01*
X0117319Y0013103D01*
X0117419Y0013217D01*
X0117517Y0013333D01*
X0117611Y0013452D01*
X0112875Y0023135D02*
X0112725Y0023133D01*
X0112574Y0023127D01*
X0112424Y0023118D01*
X0112275Y0023105D01*
X0112125Y0023088D01*
X0111976Y0023067D01*
X0111828Y0023043D01*
X0111680Y0023015D01*
X0111533Y0022983D01*
X0111387Y0022948D01*
X0111242Y0022908D01*
X0111098Y0022866D01*
X0110955Y0022819D01*
X0110813Y0022769D01*
X0110672Y0022716D01*
X0110533Y0022659D01*
X0110395Y0022599D01*
X0110259Y0022535D01*
X0110125Y0022468D01*
X0109992Y0022397D01*
X0109861Y0022323D01*
X0109732Y0022246D01*
X0109605Y0022165D01*
X0109480Y0022082D01*
X0109357Y0021995D01*
X0109236Y0021906D01*
X0109118Y0021813D01*
X0109002Y0021717D01*
X0108888Y0021619D01*
X0108777Y0021518D01*
X0108668Y0021413D01*
X0108563Y0021307D01*
X0108459Y0021197D01*
X0108359Y0021085D01*
X0108261Y0020971D01*
X0108167Y0020854D01*
X0108075Y0020735D01*
X0137560Y0020300D02*
X0137560Y0013300D01*
X0137562Y0013240D01*
X0137567Y0013179D01*
X0137576Y0013120D01*
X0137589Y0013061D01*
X0137605Y0013002D01*
X0137625Y0012945D01*
X0137648Y0012890D01*
X0137675Y0012835D01*
X0137704Y0012783D01*
X0137737Y0012732D01*
X0137773Y0012683D01*
X0137811Y0012637D01*
X0137853Y0012593D01*
X0137897Y0012551D01*
X0137943Y0012513D01*
X0137992Y0012477D01*
X0138043Y0012444D01*
X0138095Y0012415D01*
X0138150Y0012388D01*
X0138205Y0012365D01*
X0138262Y0012345D01*
X0138321Y0012329D01*
X0138380Y0012316D01*
X0138439Y0012307D01*
X0138500Y0012302D01*
X0138560Y0012300D01*
X0140060Y0012300D01*
X0140560Y0012800D01*
X0159560Y0012800D01*
X0160060Y0012300D01*
X0161560Y0012300D01*
X0161620Y0012302D01*
X0161681Y0012307D01*
X0161740Y0012316D01*
X0161799Y0012329D01*
X0161858Y0012345D01*
X0161915Y0012365D01*
X0161970Y0012388D01*
X0162025Y0012415D01*
X0162077Y0012444D01*
X0162128Y0012477D01*
X0162177Y0012513D01*
X0162223Y0012551D01*
X0162267Y0012593D01*
X0162309Y0012637D01*
X0162347Y0012683D01*
X0162383Y0012732D01*
X0162416Y0012783D01*
X0162445Y0012835D01*
X0162472Y0012890D01*
X0162495Y0012945D01*
X0162515Y0013002D01*
X0162531Y0013061D01*
X0162544Y0013120D01*
X0162553Y0013179D01*
X0162558Y0013240D01*
X0162560Y0013300D01*
X0162560Y0020300D01*
X0162558Y0020360D01*
X0162553Y0020421D01*
X0162544Y0020480D01*
X0162531Y0020539D01*
X0162515Y0020598D01*
X0162495Y0020655D01*
X0162472Y0020710D01*
X0162445Y0020765D01*
X0162416Y0020817D01*
X0162383Y0020868D01*
X0162347Y0020917D01*
X0162309Y0020963D01*
X0162267Y0021007D01*
X0162223Y0021049D01*
X0162177Y0021087D01*
X0162128Y0021123D01*
X0162077Y0021156D01*
X0162025Y0021185D01*
X0161970Y0021212D01*
X0161915Y0021235D01*
X0161858Y0021255D01*
X0161799Y0021271D01*
X0161740Y0021284D01*
X0161681Y0021293D01*
X0161620Y0021298D01*
X0161560Y0021300D01*
X0160060Y0021300D01*
X0159560Y0020800D01*
X0140560Y0020800D01*
X0140060Y0021300D01*
X0138560Y0021300D01*
X0138500Y0021298D01*
X0138439Y0021293D01*
X0138380Y0021284D01*
X0138321Y0021271D01*
X0138262Y0021255D01*
X0138205Y0021235D01*
X0138150Y0021212D01*
X0138095Y0021185D01*
X0138043Y0021156D01*
X0137992Y0021123D01*
X0137943Y0021087D01*
X0137897Y0021049D01*
X0137853Y0021007D01*
X0137811Y0020963D01*
X0137773Y0020917D01*
X0137737Y0020868D01*
X0137704Y0020817D01*
X0137675Y0020765D01*
X0137648Y0020710D01*
X0137625Y0020655D01*
X0137605Y0020598D01*
X0137589Y0020539D01*
X0137576Y0020480D01*
X0137567Y0020421D01*
X0137562Y0020360D01*
X0137560Y0020300D01*
X0141060Y0072300D02*
X0138060Y0075300D01*
X0138060Y0088300D01*
X0141060Y0091300D01*
X0165560Y0091300D01*
X0165636Y0091298D01*
X0165712Y0091292D01*
X0165787Y0091283D01*
X0165862Y0091269D01*
X0165936Y0091252D01*
X0166009Y0091231D01*
X0166081Y0091207D01*
X0166152Y0091178D01*
X0166221Y0091147D01*
X0166288Y0091112D01*
X0166353Y0091073D01*
X0166417Y0091031D01*
X0166478Y0090986D01*
X0166537Y0090938D01*
X0166593Y0090887D01*
X0166647Y0090833D01*
X0166698Y0090777D01*
X0166746Y0090718D01*
X0166791Y0090657D01*
X0166833Y0090593D01*
X0166872Y0090528D01*
X0166907Y0090461D01*
X0166938Y0090392D01*
X0166967Y0090321D01*
X0166991Y0090249D01*
X0167012Y0090176D01*
X0167029Y0090102D01*
X0167043Y0090027D01*
X0167052Y0089952D01*
X0167058Y0089876D01*
X0167060Y0089800D01*
X0167060Y0073800D01*
X0167058Y0073724D01*
X0167052Y0073648D01*
X0167043Y0073573D01*
X0167029Y0073498D01*
X0167012Y0073424D01*
X0166991Y0073351D01*
X0166967Y0073279D01*
X0166938Y0073208D01*
X0166907Y0073139D01*
X0166872Y0073072D01*
X0166833Y0073007D01*
X0166791Y0072943D01*
X0166746Y0072882D01*
X0166698Y0072823D01*
X0166647Y0072767D01*
X0166593Y0072713D01*
X0166537Y0072662D01*
X0166478Y0072614D01*
X0166417Y0072569D01*
X0166353Y0072527D01*
X0166288Y0072488D01*
X0166221Y0072453D01*
X0166152Y0072422D01*
X0166081Y0072393D01*
X0166009Y0072369D01*
X0165936Y0072348D01*
X0165862Y0072331D01*
X0165787Y0072317D01*
X0165712Y0072308D01*
X0165636Y0072302D01*
X0165560Y0072300D01*
X0141060Y0072300D01*
X0150060Y0077000D02*
X0150060Y0081800D01*
X0150060Y0086600D01*
X0152060Y0086600D01*
X0152060Y0077000D01*
X0150060Y0077000D01*
X0150060Y0081800D02*
X0146560Y0081800D01*
X0145560Y0085900D02*
X0145560Y0088400D01*
X0146860Y0087200D02*
X0144260Y0087200D01*
X0155060Y0081800D02*
X0158560Y0081800D01*
X0166060Y0154800D02*
X0167560Y0154800D01*
X0168060Y0155300D01*
X0187060Y0155300D01*
X0187560Y0154800D01*
X0189060Y0154800D01*
X0189120Y0154802D01*
X0189181Y0154807D01*
X0189240Y0154816D01*
X0189299Y0154829D01*
X0189358Y0154845D01*
X0189415Y0154865D01*
X0189470Y0154888D01*
X0189525Y0154915D01*
X0189577Y0154944D01*
X0189628Y0154977D01*
X0189677Y0155013D01*
X0189723Y0155051D01*
X0189767Y0155093D01*
X0189809Y0155137D01*
X0189847Y0155183D01*
X0189883Y0155232D01*
X0189916Y0155283D01*
X0189945Y0155335D01*
X0189972Y0155390D01*
X0189995Y0155445D01*
X0190015Y0155502D01*
X0190031Y0155561D01*
X0190044Y0155620D01*
X0190053Y0155679D01*
X0190058Y0155740D01*
X0190060Y0155800D01*
X0190060Y0162800D01*
X0190058Y0162860D01*
X0190053Y0162921D01*
X0190044Y0162980D01*
X0190031Y0163039D01*
X0190015Y0163098D01*
X0189995Y0163155D01*
X0189972Y0163210D01*
X0189945Y0163265D01*
X0189916Y0163317D01*
X0189883Y0163368D01*
X0189847Y0163417D01*
X0189809Y0163463D01*
X0189767Y0163507D01*
X0189723Y0163549D01*
X0189677Y0163587D01*
X0189628Y0163623D01*
X0189577Y0163656D01*
X0189525Y0163685D01*
X0189470Y0163712D01*
X0189415Y0163735D01*
X0189358Y0163755D01*
X0189299Y0163771D01*
X0189240Y0163784D01*
X0189181Y0163793D01*
X0189120Y0163798D01*
X0189060Y0163800D01*
X0187560Y0163800D01*
X0187060Y0163300D01*
X0168060Y0163300D01*
X0167560Y0163800D01*
X0166060Y0163800D01*
X0166000Y0163798D01*
X0165939Y0163793D01*
X0165880Y0163784D01*
X0165821Y0163771D01*
X0165762Y0163755D01*
X0165705Y0163735D01*
X0165650Y0163712D01*
X0165595Y0163685D01*
X0165543Y0163656D01*
X0165492Y0163623D01*
X0165443Y0163587D01*
X0165397Y0163549D01*
X0165353Y0163507D01*
X0165311Y0163463D01*
X0165273Y0163417D01*
X0165237Y0163368D01*
X0165204Y0163317D01*
X0165175Y0163265D01*
X0165148Y0163210D01*
X0165125Y0163155D01*
X0165105Y0163098D01*
X0165089Y0163039D01*
X0165076Y0162980D01*
X0165067Y0162921D01*
X0165062Y0162860D01*
X0165060Y0162800D01*
X0165060Y0155800D01*
X0165062Y0155740D01*
X0165067Y0155679D01*
X0165076Y0155620D01*
X0165089Y0155561D01*
X0165105Y0155502D01*
X0165125Y0155445D01*
X0165148Y0155390D01*
X0165175Y0155335D01*
X0165204Y0155283D01*
X0165237Y0155232D01*
X0165273Y0155183D01*
X0165311Y0155137D01*
X0165353Y0155093D01*
X0165397Y0155051D01*
X0165443Y0155013D01*
X0165492Y0154977D01*
X0165543Y0154944D01*
X0165595Y0154915D01*
X0165650Y0154888D01*
X0165705Y0154865D01*
X0165762Y0154845D01*
X0165821Y0154829D01*
X0165880Y0154816D01*
X0165939Y0154807D01*
X0166000Y0154802D01*
X0166060Y0154800D01*
X0169060Y0167300D02*
X0156060Y0167300D01*
X0153060Y0170300D01*
X0153060Y0194800D01*
X0153062Y0194876D01*
X0153068Y0194952D01*
X0153077Y0195027D01*
X0153091Y0195102D01*
X0153108Y0195176D01*
X0153129Y0195249D01*
X0153153Y0195321D01*
X0153182Y0195392D01*
X0153213Y0195461D01*
X0153248Y0195528D01*
X0153287Y0195593D01*
X0153329Y0195657D01*
X0153374Y0195718D01*
X0153422Y0195777D01*
X0153473Y0195833D01*
X0153527Y0195887D01*
X0153583Y0195938D01*
X0153642Y0195986D01*
X0153703Y0196031D01*
X0153767Y0196073D01*
X0153832Y0196112D01*
X0153899Y0196147D01*
X0153968Y0196178D01*
X0154039Y0196207D01*
X0154111Y0196231D01*
X0154184Y0196252D01*
X0154258Y0196269D01*
X0154333Y0196283D01*
X0154408Y0196292D01*
X0154484Y0196298D01*
X0154560Y0196300D01*
X0170560Y0196300D01*
X0170636Y0196298D01*
X0170712Y0196292D01*
X0170787Y0196283D01*
X0170862Y0196269D01*
X0170936Y0196252D01*
X0171009Y0196231D01*
X0171081Y0196207D01*
X0171152Y0196178D01*
X0171221Y0196147D01*
X0171288Y0196112D01*
X0171353Y0196073D01*
X0171417Y0196031D01*
X0171478Y0195986D01*
X0171537Y0195938D01*
X0171593Y0195887D01*
X0171647Y0195833D01*
X0171698Y0195777D01*
X0171746Y0195718D01*
X0171791Y0195657D01*
X0171833Y0195593D01*
X0171872Y0195528D01*
X0171907Y0195461D01*
X0171938Y0195392D01*
X0171967Y0195321D01*
X0171991Y0195249D01*
X0172012Y0195176D01*
X0172029Y0195102D01*
X0172043Y0195027D01*
X0172052Y0194952D01*
X0172058Y0194876D01*
X0172060Y0194800D01*
X0172060Y0170300D01*
X0169060Y0167300D01*
X0162560Y0175800D02*
X0162560Y0179300D01*
X0157760Y0179300D01*
X0157760Y0181300D01*
X0167360Y0181300D01*
X0167360Y0179300D01*
X0162560Y0179300D01*
X0158460Y0174800D02*
X0155960Y0174800D01*
X0157160Y0176100D02*
X0157160Y0173500D01*
X0147540Y0177355D02*
X0147540Y0194355D01*
X0147538Y0194415D01*
X0147533Y0194476D01*
X0147524Y0194535D01*
X0147511Y0194594D01*
X0147495Y0194653D01*
X0147475Y0194710D01*
X0147452Y0194765D01*
X0147425Y0194820D01*
X0147396Y0194872D01*
X0147363Y0194923D01*
X0147327Y0194972D01*
X0147289Y0195018D01*
X0147247Y0195062D01*
X0147203Y0195104D01*
X0147157Y0195142D01*
X0147108Y0195178D01*
X0147057Y0195211D01*
X0147005Y0195240D01*
X0146950Y0195267D01*
X0146895Y0195290D01*
X0146838Y0195310D01*
X0146779Y0195326D01*
X0146720Y0195339D01*
X0146661Y0195348D01*
X0146600Y0195353D01*
X0146540Y0195355D01*
X0138540Y0195355D01*
X0138480Y0195353D01*
X0138419Y0195348D01*
X0138360Y0195339D01*
X0138301Y0195326D01*
X0138242Y0195310D01*
X0138185Y0195290D01*
X0138130Y0195267D01*
X0138075Y0195240D01*
X0138023Y0195211D01*
X0137972Y0195178D01*
X0137923Y0195142D01*
X0137877Y0195104D01*
X0137833Y0195062D01*
X0137791Y0195018D01*
X0137753Y0194972D01*
X0137717Y0194923D01*
X0137684Y0194872D01*
X0137655Y0194820D01*
X0137628Y0194765D01*
X0137605Y0194710D01*
X0137585Y0194653D01*
X0137569Y0194594D01*
X0137556Y0194535D01*
X0137547Y0194476D01*
X0137542Y0194415D01*
X0137540Y0194355D01*
X0137540Y0177355D01*
X0137542Y0177295D01*
X0137547Y0177234D01*
X0137556Y0177175D01*
X0137569Y0177116D01*
X0137585Y0177057D01*
X0137605Y0177000D01*
X0137628Y0176945D01*
X0137655Y0176890D01*
X0137684Y0176838D01*
X0137717Y0176787D01*
X0137753Y0176738D01*
X0137791Y0176692D01*
X0137833Y0176648D01*
X0137877Y0176606D01*
X0137923Y0176568D01*
X0137972Y0176532D01*
X0138023Y0176499D01*
X0138075Y0176470D01*
X0138130Y0176443D01*
X0138185Y0176420D01*
X0138242Y0176400D01*
X0138301Y0176384D01*
X0138360Y0176371D01*
X0138419Y0176362D01*
X0138480Y0176357D01*
X0138540Y0176355D01*
X0146540Y0176355D01*
X0146600Y0176357D01*
X0146661Y0176362D01*
X0146720Y0176371D01*
X0146779Y0176384D01*
X0146838Y0176400D01*
X0146895Y0176420D01*
X0146950Y0176443D01*
X0147005Y0176470D01*
X0147057Y0176499D01*
X0147108Y0176532D01*
X0147157Y0176568D01*
X0147203Y0176606D01*
X0147247Y0176648D01*
X0147289Y0176692D01*
X0147327Y0176738D01*
X0147363Y0176787D01*
X0147396Y0176838D01*
X0147425Y0176890D01*
X0147452Y0176945D01*
X0147475Y0177000D01*
X0147495Y0177057D01*
X0147511Y0177116D01*
X0147524Y0177175D01*
X0147533Y0177234D01*
X0147538Y0177295D01*
X0147540Y0177355D01*
X0142540Y0184355D02*
X0142540Y0184855D01*
X0142540Y0186855D02*
X0142540Y0187355D01*
X0136005Y0193076D02*
X0136005Y0176076D01*
X0136003Y0176016D01*
X0135998Y0175955D01*
X0135989Y0175896D01*
X0135976Y0175837D01*
X0135960Y0175778D01*
X0135940Y0175721D01*
X0135917Y0175666D01*
X0135890Y0175611D01*
X0135861Y0175559D01*
X0135828Y0175508D01*
X0135792Y0175459D01*
X0135754Y0175413D01*
X0135712Y0175369D01*
X0135668Y0175327D01*
X0135622Y0175289D01*
X0135573Y0175253D01*
X0135522Y0175220D01*
X0135470Y0175191D01*
X0135415Y0175164D01*
X0135360Y0175141D01*
X0135303Y0175121D01*
X0135244Y0175105D01*
X0135185Y0175092D01*
X0135126Y0175083D01*
X0135065Y0175078D01*
X0135005Y0175076D01*
X0127005Y0175076D01*
X0126945Y0175078D01*
X0126884Y0175083D01*
X0126825Y0175092D01*
X0126766Y0175105D01*
X0126707Y0175121D01*
X0126650Y0175141D01*
X0126595Y0175164D01*
X0126540Y0175191D01*
X0126488Y0175220D01*
X0126437Y0175253D01*
X0126388Y0175289D01*
X0126342Y0175327D01*
X0126298Y0175369D01*
X0126256Y0175413D01*
X0126218Y0175459D01*
X0126182Y0175508D01*
X0126149Y0175559D01*
X0126120Y0175611D01*
X0126093Y0175666D01*
X0126070Y0175721D01*
X0126050Y0175778D01*
X0126034Y0175837D01*
X0126021Y0175896D01*
X0126012Y0175955D01*
X0126007Y0176016D01*
X0126005Y0176076D01*
X0126005Y0193076D01*
X0126007Y0193136D01*
X0126012Y0193197D01*
X0126021Y0193256D01*
X0126034Y0193315D01*
X0126050Y0193374D01*
X0126070Y0193431D01*
X0126093Y0193486D01*
X0126120Y0193541D01*
X0126149Y0193593D01*
X0126182Y0193644D01*
X0126218Y0193693D01*
X0126256Y0193739D01*
X0126298Y0193783D01*
X0126342Y0193825D01*
X0126388Y0193863D01*
X0126437Y0193899D01*
X0126488Y0193932D01*
X0126540Y0193961D01*
X0126595Y0193988D01*
X0126650Y0194011D01*
X0126707Y0194031D01*
X0126766Y0194047D01*
X0126825Y0194060D01*
X0126884Y0194069D01*
X0126945Y0194074D01*
X0127005Y0194076D01*
X0135005Y0194076D01*
X0135065Y0194074D01*
X0135126Y0194069D01*
X0135185Y0194060D01*
X0135244Y0194047D01*
X0135303Y0194031D01*
X0135360Y0194011D01*
X0135415Y0193988D01*
X0135470Y0193961D01*
X0135522Y0193932D01*
X0135573Y0193899D01*
X0135622Y0193863D01*
X0135668Y0193825D01*
X0135712Y0193783D01*
X0135754Y0193739D01*
X0135792Y0193693D01*
X0135828Y0193644D01*
X0135861Y0193593D01*
X0135890Y0193541D01*
X0135917Y0193486D01*
X0135940Y0193431D01*
X0135960Y0193374D01*
X0135976Y0193315D01*
X0135989Y0193256D01*
X0135998Y0193197D01*
X0136003Y0193136D01*
X0136005Y0193076D01*
X0131005Y0186076D02*
X0131005Y0185576D01*
X0131005Y0183576D02*
X0131005Y0183076D01*
X0114060Y0174300D02*
X0113560Y0174300D01*
X0111560Y0174300D02*
X0111060Y0174300D01*
X0059745Y0136225D02*
X0059745Y0119225D01*
X0059743Y0119165D01*
X0059738Y0119104D01*
X0059729Y0119045D01*
X0059716Y0118986D01*
X0059700Y0118927D01*
X0059680Y0118870D01*
X0059657Y0118815D01*
X0059630Y0118760D01*
X0059601Y0118708D01*
X0059568Y0118657D01*
X0059532Y0118608D01*
X0059494Y0118562D01*
X0059452Y0118518D01*
X0059408Y0118476D01*
X0059362Y0118438D01*
X0059313Y0118402D01*
X0059262Y0118369D01*
X0059210Y0118340D01*
X0059155Y0118313D01*
X0059100Y0118290D01*
X0059043Y0118270D01*
X0058984Y0118254D01*
X0058925Y0118241D01*
X0058866Y0118232D01*
X0058805Y0118227D01*
X0058745Y0118225D01*
X0050745Y0118225D01*
X0050685Y0118227D01*
X0050624Y0118232D01*
X0050565Y0118241D01*
X0050506Y0118254D01*
X0050447Y0118270D01*
X0050390Y0118290D01*
X0050335Y0118313D01*
X0050280Y0118340D01*
X0050228Y0118369D01*
X0050177Y0118402D01*
X0050128Y0118438D01*
X0050082Y0118476D01*
X0050038Y0118518D01*
X0049996Y0118562D01*
X0049958Y0118608D01*
X0049922Y0118657D01*
X0049889Y0118708D01*
X0049860Y0118760D01*
X0049833Y0118815D01*
X0049810Y0118870D01*
X0049790Y0118927D01*
X0049774Y0118986D01*
X0049761Y0119045D01*
X0049752Y0119104D01*
X0049747Y0119165D01*
X0049745Y0119225D01*
X0049745Y0136225D01*
X0049747Y0136285D01*
X0049752Y0136346D01*
X0049761Y0136405D01*
X0049774Y0136464D01*
X0049790Y0136523D01*
X0049810Y0136580D01*
X0049833Y0136635D01*
X0049860Y0136690D01*
X0049889Y0136742D01*
X0049922Y0136793D01*
X0049958Y0136842D01*
X0049996Y0136888D01*
X0050038Y0136932D01*
X0050082Y0136974D01*
X0050128Y0137012D01*
X0050177Y0137048D01*
X0050228Y0137081D01*
X0050280Y0137110D01*
X0050335Y0137137D01*
X0050390Y0137160D01*
X0050447Y0137180D01*
X0050506Y0137196D01*
X0050565Y0137209D01*
X0050624Y0137218D01*
X0050685Y0137223D01*
X0050745Y0137225D01*
X0058745Y0137225D01*
X0058805Y0137223D01*
X0058866Y0137218D01*
X0058925Y0137209D01*
X0058984Y0137196D01*
X0059043Y0137180D01*
X0059100Y0137160D01*
X0059155Y0137137D01*
X0059210Y0137110D01*
X0059262Y0137081D01*
X0059313Y0137048D01*
X0059362Y0137012D01*
X0059408Y0136974D01*
X0059452Y0136932D01*
X0059494Y0136888D01*
X0059532Y0136842D01*
X0059568Y0136793D01*
X0059601Y0136742D01*
X0059630Y0136690D01*
X0059657Y0136635D01*
X0059680Y0136580D01*
X0059700Y0136523D01*
X0059716Y0136464D01*
X0059729Y0136405D01*
X0059738Y0136346D01*
X0059743Y0136285D01*
X0059745Y0136225D01*
X0054745Y0129225D02*
X0054745Y0128725D01*
X0054745Y0126725D02*
X0054745Y0126225D01*
X0162560Y0184300D02*
X0162560Y0187800D01*
X0182245Y0192800D02*
X0182399Y0192798D01*
X0182553Y0192792D01*
X0182707Y0192782D01*
X0182861Y0192768D01*
X0183014Y0192751D01*
X0183166Y0192729D01*
X0183318Y0192703D01*
X0183470Y0192674D01*
X0183620Y0192640D01*
X0183770Y0192603D01*
X0183918Y0192562D01*
X0184066Y0192517D01*
X0184212Y0192468D01*
X0184357Y0192416D01*
X0184500Y0192360D01*
X0184643Y0192300D01*
X0184783Y0192237D01*
X0184922Y0192170D01*
X0185059Y0192099D01*
X0185194Y0192025D01*
X0185327Y0191948D01*
X0185459Y0191867D01*
X0185588Y0191783D01*
X0185715Y0191695D01*
X0185839Y0191604D01*
X0185961Y0191511D01*
X0186081Y0191413D01*
X0186198Y0191313D01*
X0186313Y0191210D01*
X0186425Y0191104D01*
X0186534Y0190996D01*
X0186640Y0190884D01*
X0186744Y0190770D01*
X0186844Y0190653D01*
X0186942Y0190534D01*
X0187036Y0190412D01*
X0187127Y0190287D01*
X0182245Y0180800D02*
X0182093Y0180802D01*
X0181942Y0180808D01*
X0181791Y0180817D01*
X0181639Y0180831D01*
X0181489Y0180848D01*
X0181339Y0180869D01*
X0181189Y0180894D01*
X0181040Y0180922D01*
X0180892Y0180955D01*
X0180745Y0180991D01*
X0180598Y0181030D01*
X0180453Y0181074D01*
X0180309Y0181121D01*
X0180166Y0181172D01*
X0180025Y0181226D01*
X0179884Y0181284D01*
X0179746Y0181345D01*
X0179609Y0181410D01*
X0179473Y0181479D01*
X0179340Y0181550D01*
X0179208Y0181625D01*
X0179078Y0181704D01*
X0178951Y0181785D01*
X0178825Y0181870D01*
X0178701Y0181958D01*
X0178580Y0182049D01*
X0178461Y0182143D01*
X0178345Y0182241D01*
X0178231Y0182341D01*
X0178119Y0182443D01*
X0178011Y0182549D01*
X0177905Y0182657D01*
X0177801Y0182768D01*
X0177701Y0182882D01*
X0177603Y0182998D01*
X0177509Y0183117D01*
X0182245Y0180800D02*
X0182397Y0180802D01*
X0182548Y0180808D01*
X0182699Y0180817D01*
X0182851Y0180831D01*
X0183001Y0180848D01*
X0183151Y0180869D01*
X0183301Y0180894D01*
X0183450Y0180922D01*
X0183598Y0180955D01*
X0183745Y0180991D01*
X0183892Y0181030D01*
X0184037Y0181074D01*
X0184181Y0181121D01*
X0184324Y0181172D01*
X0184465Y0181226D01*
X0184606Y0181284D01*
X0184744Y0181345D01*
X0184881Y0181410D01*
X0185017Y0181479D01*
X0185150Y0181550D01*
X0185282Y0181625D01*
X0185412Y0181704D01*
X0185539Y0181785D01*
X0185665Y0181870D01*
X0185789Y0181958D01*
X0185910Y0182049D01*
X0186029Y0182143D01*
X0186145Y0182241D01*
X0186259Y0182341D01*
X0186371Y0182443D01*
X0186479Y0182549D01*
X0186585Y0182657D01*
X0186689Y0182768D01*
X0186789Y0182882D01*
X0186887Y0182998D01*
X0186981Y0183117D01*
X0182245Y0192800D02*
X0182095Y0192798D01*
X0181944Y0192792D01*
X0181794Y0192783D01*
X0181645Y0192770D01*
X0181495Y0192753D01*
X0181346Y0192732D01*
X0181198Y0192708D01*
X0181050Y0192680D01*
X0180903Y0192648D01*
X0180757Y0192613D01*
X0180612Y0192573D01*
X0180468Y0192531D01*
X0180325Y0192484D01*
X0180183Y0192434D01*
X0180042Y0192381D01*
X0179903Y0192324D01*
X0179765Y0192264D01*
X0179629Y0192200D01*
X0179495Y0192133D01*
X0179362Y0192062D01*
X0179231Y0191988D01*
X0179102Y0191911D01*
X0178975Y0191830D01*
X0178850Y0191747D01*
X0178727Y0191660D01*
X0178606Y0191571D01*
X0178488Y0191478D01*
X0178372Y0191382D01*
X0178258Y0191284D01*
X0178147Y0191183D01*
X0178038Y0191078D01*
X0177933Y0190972D01*
X0177829Y0190862D01*
X0177729Y0190750D01*
X0177631Y0190636D01*
X0177537Y0190519D01*
X0177445Y0190400D01*
D12*
X0175299Y0182831D02*
X0175398Y0182662D01*
X0175502Y0182496D01*
X0175609Y0182332D01*
X0175720Y0182171D01*
X0175835Y0182013D01*
X0175954Y0181858D01*
X0176077Y0181705D01*
X0176203Y0181556D01*
X0176333Y0181410D01*
X0176467Y0181267D01*
X0176604Y0181127D01*
X0176744Y0180991D01*
X0176888Y0180858D01*
X0177035Y0180729D01*
X0177185Y0180603D01*
X0177338Y0180482D01*
X0177494Y0180363D01*
X0177653Y0180249D01*
X0177814Y0180139D01*
X0177979Y0180033D01*
X0178145Y0179930D01*
X0178315Y0179832D01*
X0178486Y0179738D01*
X0178660Y0179648D01*
X0178836Y0179563D01*
X0179014Y0179481D01*
X0179194Y0179405D01*
X0179376Y0179332D01*
X0179559Y0179264D01*
X0179744Y0179201D01*
X0179931Y0179142D01*
X0180119Y0179088D01*
X0180308Y0179038D01*
X0180498Y0178993D01*
X0180690Y0178953D01*
X0180882Y0178917D01*
X0181075Y0178886D01*
X0181269Y0178860D01*
X0181464Y0178838D01*
X0181659Y0178822D01*
X0181854Y0178810D01*
X0182050Y0178802D01*
X0182245Y0178800D01*
X0175186Y0190565D02*
X0175279Y0190733D01*
X0175375Y0190899D01*
X0175475Y0191063D01*
X0175580Y0191224D01*
X0175688Y0191383D01*
X0175800Y0191539D01*
X0175916Y0191693D01*
X0176035Y0191843D01*
X0176158Y0191991D01*
X0176284Y0192136D01*
X0176414Y0192277D01*
X0176547Y0192416D01*
X0176684Y0192551D01*
X0176824Y0192683D01*
X0176966Y0192811D01*
X0177112Y0192936D01*
X0177261Y0193058D01*
X0177413Y0193176D01*
X0177567Y0193290D01*
X0177725Y0193400D01*
X0177884Y0193507D01*
X0178047Y0193610D01*
X0178212Y0193709D01*
X0178379Y0193804D01*
X0178548Y0193894D01*
X0178719Y0193981D01*
X0178893Y0194064D01*
X0179068Y0194142D01*
X0179246Y0194216D01*
X0179425Y0194286D01*
X0179605Y0194352D01*
X0179787Y0194413D01*
X0179971Y0194470D01*
X0180156Y0194522D01*
X0180342Y0194570D01*
X0180529Y0194614D01*
X0180717Y0194653D01*
X0180906Y0194687D01*
X0181096Y0194717D01*
X0181286Y0194742D01*
X0181477Y0194763D01*
X0181669Y0194779D01*
X0181861Y0194791D01*
X0182053Y0194798D01*
X0182245Y0194800D01*
X0188352Y0181632D02*
X0188225Y0181486D01*
X0188096Y0181344D01*
X0187962Y0181204D01*
X0187826Y0181068D01*
X0187686Y0180935D01*
X0187543Y0180805D01*
X0187396Y0180679D01*
X0187247Y0180557D01*
X0187095Y0180438D01*
X0186940Y0180323D01*
X0186783Y0180211D01*
X0186623Y0180104D01*
X0186460Y0180000D01*
X0186294Y0179901D01*
X0186127Y0179805D01*
X0185957Y0179713D01*
X0185785Y0179626D01*
X0185611Y0179542D01*
X0185435Y0179463D01*
X0185257Y0179389D01*
X0185077Y0179318D01*
X0184896Y0179252D01*
X0184713Y0179190D01*
X0184529Y0179133D01*
X0184343Y0179080D01*
X0184156Y0179032D01*
X0183968Y0178988D01*
X0183779Y0178949D01*
X0183589Y0178914D01*
X0183399Y0178884D01*
X0183208Y0178858D01*
X0183016Y0178837D01*
X0182823Y0178821D01*
X0182631Y0178809D01*
X0182438Y0178802D01*
X0182245Y0178800D01*
X0188391Y0191922D02*
X0188264Y0192070D01*
X0188134Y0192215D01*
X0188001Y0192356D01*
X0187864Y0192495D01*
X0187724Y0192630D01*
X0187580Y0192761D01*
X0187433Y0192889D01*
X0187284Y0193014D01*
X0187131Y0193135D01*
X0186976Y0193252D01*
X0186817Y0193365D01*
X0186656Y0193474D01*
X0186492Y0193579D01*
X0186326Y0193681D01*
X0186157Y0193778D01*
X0185987Y0193871D01*
X0185813Y0193960D01*
X0185638Y0194045D01*
X0185461Y0194125D01*
X0185282Y0194201D01*
X0185101Y0194273D01*
X0184918Y0194340D01*
X0184734Y0194403D01*
X0184548Y0194461D01*
X0184361Y0194515D01*
X0184173Y0194564D01*
X0183983Y0194609D01*
X0183793Y0194649D01*
X0183601Y0194684D01*
X0183409Y0194715D01*
X0183216Y0194741D01*
X0183022Y0194762D01*
X0182828Y0194779D01*
X0182634Y0194791D01*
X0182440Y0194798D01*
X0182245Y0194800D01*
X0145540Y0186855D02*
X0142540Y0186855D01*
X0139540Y0186855D01*
X0139540Y0184855D02*
X0142540Y0184855D01*
X0145540Y0184855D01*
X0134005Y0185576D02*
X0131005Y0185576D01*
X0128005Y0185576D01*
X0128005Y0183576D02*
X0131005Y0183576D01*
X0134005Y0183576D01*
X0113560Y0177300D02*
X0113560Y0174300D01*
X0113560Y0171300D01*
X0111560Y0171300D02*
X0111560Y0174300D01*
X0111560Y0177300D01*
X0057745Y0128725D02*
X0054745Y0128725D01*
X0051745Y0128725D01*
X0051745Y0126725D02*
X0054745Y0126725D01*
X0057745Y0126725D01*
X0105929Y0013166D02*
X0106028Y0012997D01*
X0106132Y0012831D01*
X0106239Y0012667D01*
X0106350Y0012506D01*
X0106465Y0012348D01*
X0106584Y0012193D01*
X0106707Y0012040D01*
X0106833Y0011891D01*
X0106963Y0011745D01*
X0107097Y0011602D01*
X0107234Y0011462D01*
X0107374Y0011326D01*
X0107518Y0011193D01*
X0107665Y0011064D01*
X0107815Y0010938D01*
X0107968Y0010817D01*
X0108124Y0010698D01*
X0108283Y0010584D01*
X0108444Y0010474D01*
X0108609Y0010368D01*
X0108775Y0010265D01*
X0108945Y0010167D01*
X0109116Y0010073D01*
X0109290Y0009983D01*
X0109466Y0009898D01*
X0109644Y0009816D01*
X0109824Y0009740D01*
X0110006Y0009667D01*
X0110189Y0009599D01*
X0110374Y0009536D01*
X0110561Y0009477D01*
X0110749Y0009423D01*
X0110938Y0009373D01*
X0111128Y0009328D01*
X0111320Y0009288D01*
X0111512Y0009252D01*
X0111705Y0009221D01*
X0111899Y0009195D01*
X0112094Y0009173D01*
X0112289Y0009157D01*
X0112484Y0009145D01*
X0112680Y0009137D01*
X0112875Y0009135D01*
X0105816Y0020900D02*
X0105909Y0021068D01*
X0106005Y0021234D01*
X0106105Y0021398D01*
X0106210Y0021559D01*
X0106318Y0021718D01*
X0106430Y0021874D01*
X0106546Y0022028D01*
X0106665Y0022178D01*
X0106788Y0022326D01*
X0106914Y0022471D01*
X0107044Y0022612D01*
X0107177Y0022751D01*
X0107314Y0022886D01*
X0107454Y0023018D01*
X0107596Y0023146D01*
X0107742Y0023271D01*
X0107891Y0023393D01*
X0108043Y0023511D01*
X0108197Y0023625D01*
X0108355Y0023735D01*
X0108514Y0023842D01*
X0108677Y0023945D01*
X0108842Y0024044D01*
X0109009Y0024139D01*
X0109178Y0024229D01*
X0109349Y0024316D01*
X0109523Y0024399D01*
X0109698Y0024477D01*
X0109876Y0024551D01*
X0110055Y0024621D01*
X0110235Y0024687D01*
X0110417Y0024748D01*
X0110601Y0024805D01*
X0110786Y0024857D01*
X0110972Y0024905D01*
X0111159Y0024949D01*
X0111347Y0024988D01*
X0111536Y0025022D01*
X0111726Y0025052D01*
X0111916Y0025077D01*
X0112107Y0025098D01*
X0112299Y0025114D01*
X0112491Y0025126D01*
X0112683Y0025133D01*
X0112875Y0025135D01*
X0118982Y0011967D02*
X0118855Y0011821D01*
X0118726Y0011679D01*
X0118592Y0011539D01*
X0118456Y0011403D01*
X0118316Y0011270D01*
X0118173Y0011140D01*
X0118026Y0011014D01*
X0117877Y0010892D01*
X0117725Y0010773D01*
X0117570Y0010658D01*
X0117413Y0010546D01*
X0117253Y0010439D01*
X0117090Y0010335D01*
X0116924Y0010236D01*
X0116757Y0010140D01*
X0116587Y0010048D01*
X0116415Y0009961D01*
X0116241Y0009877D01*
X0116065Y0009798D01*
X0115887Y0009724D01*
X0115707Y0009653D01*
X0115526Y0009587D01*
X0115343Y0009525D01*
X0115159Y0009468D01*
X0114973Y0009415D01*
X0114786Y0009367D01*
X0114598Y0009323D01*
X0114409Y0009284D01*
X0114219Y0009249D01*
X0114029Y0009219D01*
X0113838Y0009193D01*
X0113646Y0009172D01*
X0113453Y0009156D01*
X0113261Y0009144D01*
X0113068Y0009137D01*
X0112875Y0009135D01*
X0119021Y0022257D02*
X0118894Y0022405D01*
X0118764Y0022550D01*
X0118631Y0022691D01*
X0118494Y0022830D01*
X0118354Y0022965D01*
X0118210Y0023096D01*
X0118063Y0023224D01*
X0117914Y0023349D01*
X0117761Y0023470D01*
X0117606Y0023587D01*
X0117447Y0023700D01*
X0117286Y0023809D01*
X0117122Y0023914D01*
X0116956Y0024016D01*
X0116787Y0024113D01*
X0116617Y0024206D01*
X0116443Y0024295D01*
X0116268Y0024380D01*
X0116091Y0024460D01*
X0115912Y0024536D01*
X0115731Y0024608D01*
X0115548Y0024675D01*
X0115364Y0024738D01*
X0115178Y0024796D01*
X0114991Y0024850D01*
X0114803Y0024899D01*
X0114613Y0024944D01*
X0114423Y0024984D01*
X0114231Y0025019D01*
X0114039Y0025050D01*
X0113846Y0025076D01*
X0113652Y0025097D01*
X0113458Y0025114D01*
X0113264Y0025126D01*
X0113070Y0025133D01*
X0112875Y0025135D01*
D13*
X0120625Y0023388D02*
X0120625Y0018885D01*
X0123628Y0018885D01*
X0125229Y0018885D02*
X0128231Y0018885D01*
X0129833Y0018885D02*
X0132085Y0018885D01*
X0132835Y0019635D01*
X0132835Y0022638D01*
X0132085Y0023388D01*
X0129833Y0023388D01*
X0129833Y0018885D01*
X0129833Y0015388D02*
X0129833Y0010885D01*
X0132835Y0010885D01*
X0134437Y0010885D02*
X0137439Y0010885D01*
X0139041Y0010885D02*
X0139041Y0015388D01*
X0142043Y0010885D01*
X0142043Y0015388D01*
X0145398Y0015301D02*
X0146149Y0014550D01*
X0147650Y0014550D01*
X0148401Y0015301D01*
X0148401Y0016051D01*
X0147650Y0016802D01*
X0146899Y0016802D01*
X0147650Y0016802D02*
X0148401Y0017553D01*
X0148401Y0018303D01*
X0147650Y0019054D01*
X0146149Y0019054D01*
X0145398Y0018303D01*
X0150002Y0018303D02*
X0150753Y0019054D01*
X0152254Y0019054D01*
X0153005Y0018303D01*
X0153005Y0017553D01*
X0152254Y0016802D01*
X0153005Y0016051D01*
X0153005Y0015301D01*
X0152254Y0014550D01*
X0150753Y0014550D01*
X0150002Y0015301D01*
X0151503Y0016802D02*
X0152254Y0016802D01*
X0154606Y0015301D02*
X0154606Y0018303D01*
X0155357Y0019054D01*
X0156858Y0019054D01*
X0157609Y0018303D01*
X0154606Y0015301D01*
X0155357Y0014550D01*
X0156858Y0014550D01*
X0157609Y0015301D01*
X0157609Y0018303D01*
X0158457Y0010554D02*
X0157706Y0009803D01*
X0158457Y0010554D02*
X0159958Y0010554D01*
X0160709Y0009803D01*
X0160709Y0009053D01*
X0157706Y0006050D01*
X0160709Y0006050D01*
X0156105Y0006050D02*
X0154603Y0007551D01*
X0155354Y0007551D02*
X0153102Y0007551D01*
X0153102Y0006050D02*
X0153102Y0010554D01*
X0155354Y0010554D01*
X0156105Y0009803D01*
X0156105Y0008302D01*
X0155354Y0007551D01*
X0137439Y0015388D02*
X0134437Y0015388D01*
X0134437Y0010885D01*
X0134437Y0013137D02*
X0135938Y0013137D01*
X0132835Y0015388D02*
X0129833Y0015388D01*
X0128231Y0014638D02*
X0128231Y0013137D01*
X0127481Y0012386D01*
X0125229Y0012386D01*
X0126730Y0012386D02*
X0128231Y0010885D01*
X0129833Y0013137D02*
X0131334Y0013137D01*
X0128231Y0014638D02*
X0127481Y0015388D01*
X0125229Y0015388D01*
X0125229Y0010885D01*
X0123628Y0011635D02*
X0123628Y0013137D01*
X0122126Y0013137D01*
X0120625Y0014638D02*
X0120625Y0011635D01*
X0121376Y0010885D01*
X0122877Y0010885D01*
X0123628Y0011635D01*
X0123628Y0014638D02*
X0122877Y0015388D01*
X0121376Y0015388D01*
X0120625Y0014638D01*
X0125229Y0018885D02*
X0125229Y0023388D01*
X0128231Y0023388D01*
X0126730Y0021137D02*
X0125229Y0021137D01*
X0134437Y0022638D02*
X0135187Y0023388D01*
X0136689Y0023388D01*
X0137439Y0022638D01*
X0137439Y0021887D01*
X0134437Y0018885D01*
X0137439Y0018885D01*
X0106337Y0015635D02*
X0106337Y0015001D01*
X0106020Y0014684D01*
X0105070Y0014684D01*
X0105703Y0014684D02*
X0106337Y0014050D01*
X0105070Y0014050D02*
X0105070Y0015952D01*
X0106020Y0015952D01*
X0106337Y0015635D01*
X0104127Y0015952D02*
X0102860Y0015952D01*
X0102860Y0014050D01*
X0104127Y0014050D01*
X0103494Y0015001D02*
X0102860Y0015001D01*
X0101918Y0014684D02*
X0101918Y0014367D01*
X0101601Y0014050D01*
X0100967Y0014050D01*
X0100650Y0014367D01*
X0100967Y0015001D02*
X0101601Y0015001D01*
X0101918Y0014684D01*
X0101918Y0015635D02*
X0101601Y0015952D01*
X0100967Y0015952D01*
X0100650Y0015635D01*
X0100650Y0015318D01*
X0100967Y0015001D01*
X0099708Y0014367D02*
X0099708Y0015952D01*
X0098440Y0015952D02*
X0098440Y0014367D01*
X0098757Y0014050D01*
X0099391Y0014050D01*
X0099708Y0014367D01*
X0099391Y0017550D02*
X0098757Y0017550D01*
X0098440Y0017867D01*
X0098440Y0019452D01*
X0099708Y0019452D02*
X0099708Y0017867D01*
X0099391Y0017550D01*
X0100650Y0017867D02*
X0100967Y0017550D01*
X0101601Y0017550D01*
X0101918Y0017867D01*
X0101918Y0018184D01*
X0101601Y0018501D01*
X0100967Y0018501D01*
X0100650Y0018818D01*
X0100650Y0019135D01*
X0100967Y0019452D01*
X0101601Y0019452D01*
X0101918Y0019135D01*
X0101284Y0019769D02*
X0101284Y0017233D01*
X0102860Y0017867D02*
X0103177Y0017550D01*
X0103810Y0017550D01*
X0104127Y0017867D01*
X0104127Y0018501D01*
X0103810Y0018818D01*
X0103494Y0018818D01*
X0102860Y0018501D01*
X0102860Y0019452D01*
X0104127Y0019452D01*
X0083190Y0016800D02*
X0080690Y0016800D01*
X0078190Y0019300D01*
X0075690Y0016800D02*
X0073190Y0016800D01*
X0072307Y0015637D02*
X0071039Y0015637D01*
X0071673Y0015637D02*
X0071673Y0013735D01*
X0070097Y0013735D02*
X0068829Y0013735D01*
X0068829Y0015637D01*
X0070097Y0015637D01*
X0069463Y0014686D02*
X0068829Y0014686D01*
X0067887Y0014369D02*
X0067887Y0014052D01*
X0067570Y0013735D01*
X0066936Y0013735D01*
X0066620Y0014052D01*
X0066936Y0014686D02*
X0067570Y0014686D01*
X0067887Y0014369D01*
X0067887Y0015320D02*
X0067570Y0015637D01*
X0066936Y0015637D01*
X0066620Y0015320D01*
X0066620Y0015003D01*
X0066936Y0014686D01*
X0065677Y0015637D02*
X0064410Y0015637D01*
X0064410Y0013735D01*
X0065677Y0013735D01*
X0065044Y0014686D02*
X0064410Y0014686D01*
X0063467Y0014686D02*
X0063151Y0014369D01*
X0062200Y0014369D01*
X0062834Y0014369D02*
X0063467Y0013735D01*
X0063467Y0014686D02*
X0063467Y0015320D01*
X0063151Y0015637D01*
X0062200Y0015637D01*
X0062200Y0013735D01*
X0062517Y0017235D02*
X0063151Y0017235D01*
X0063467Y0017552D01*
X0063467Y0019137D01*
X0064410Y0018820D02*
X0064727Y0019137D01*
X0065360Y0019137D01*
X0065677Y0018820D01*
X0065360Y0018186D02*
X0064727Y0018186D01*
X0064410Y0018503D01*
X0064410Y0018820D01*
X0065044Y0019454D02*
X0065044Y0016918D01*
X0065360Y0017235D02*
X0064727Y0017235D01*
X0064410Y0017552D01*
X0065360Y0017235D02*
X0065677Y0017552D01*
X0065677Y0017869D01*
X0065360Y0018186D01*
X0066620Y0018186D02*
X0067887Y0018186D01*
X0067570Y0019137D02*
X0066620Y0018186D01*
X0067570Y0017235D02*
X0067570Y0019137D01*
X0062200Y0019137D02*
X0062200Y0017552D01*
X0062517Y0017235D01*
X0046950Y0016485D02*
X0044450Y0016485D01*
X0041950Y0018985D01*
X0039450Y0016485D02*
X0036950Y0016485D01*
X0019627Y0014894D02*
X0017091Y0014894D01*
X0017408Y0015211D02*
X0017725Y0015528D01*
X0017408Y0015211D02*
X0017408Y0014577D01*
X0017725Y0014260D01*
X0018042Y0014260D01*
X0018359Y0014577D01*
X0018359Y0015211D01*
X0018676Y0015528D01*
X0018993Y0015528D01*
X0019310Y0015211D01*
X0019310Y0014577D01*
X0018993Y0014260D01*
X0018993Y0013318D02*
X0017408Y0013318D01*
X0017408Y0012050D02*
X0018993Y0012050D01*
X0019310Y0012367D01*
X0019310Y0013001D01*
X0018993Y0013318D01*
X0018993Y0016470D02*
X0018676Y0016470D01*
X0018359Y0016787D01*
X0018359Y0017421D01*
X0018676Y0017738D01*
X0018993Y0017738D01*
X0019310Y0017421D01*
X0019310Y0016787D01*
X0018993Y0016470D01*
X0018359Y0016787D02*
X0018042Y0016470D01*
X0017725Y0016470D01*
X0017408Y0016787D01*
X0017408Y0017421D01*
X0017725Y0017738D01*
X0018042Y0017738D01*
X0018359Y0017421D01*
X0017810Y0027050D02*
X0015908Y0027050D01*
X0015908Y0028001D01*
X0016225Y0028318D01*
X0016859Y0028318D01*
X0017176Y0028001D01*
X0017176Y0027050D01*
X0017810Y0029260D02*
X0017810Y0029894D01*
X0017810Y0029577D02*
X0015908Y0029577D01*
X0015908Y0029260D02*
X0015908Y0029894D01*
X0016225Y0030733D02*
X0017493Y0030733D01*
X0017810Y0031050D01*
X0017810Y0031684D01*
X0017493Y0032001D01*
X0017176Y0032943D02*
X0015908Y0034211D01*
X0015908Y0035153D02*
X0015908Y0035787D01*
X0015908Y0035470D02*
X0017810Y0035470D01*
X0017810Y0035153D02*
X0017810Y0035787D01*
X0017810Y0037260D02*
X0015908Y0037260D01*
X0015908Y0036626D02*
X0015908Y0037894D01*
X0017810Y0034211D02*
X0016859Y0033260D01*
X0015908Y0032943D02*
X0017810Y0032943D01*
X0016225Y0032001D02*
X0015908Y0031684D01*
X0015908Y0031050D01*
X0016225Y0030733D01*
X0002560Y0019300D02*
X0005060Y0016800D01*
X0002560Y0014300D01*
X0002560Y0019300D01*
X0029621Y0046920D02*
X0029621Y0049172D01*
X0030372Y0049923D01*
X0031873Y0049923D01*
X0032624Y0049172D01*
X0032624Y0046920D01*
X0034125Y0046920D02*
X0029621Y0046920D01*
X0032624Y0048421D02*
X0034125Y0049923D01*
X0033374Y0051524D02*
X0034125Y0052275D01*
X0034125Y0053776D01*
X0033374Y0054527D01*
X0032624Y0054527D01*
X0031873Y0053776D01*
X0031873Y0053025D01*
X0031873Y0053776D02*
X0031122Y0054527D01*
X0030372Y0054527D01*
X0029621Y0053776D01*
X0029621Y0052275D01*
X0030372Y0051524D01*
X0038121Y0051521D02*
X0039622Y0050020D01*
X0038121Y0051521D02*
X0042625Y0051521D01*
X0044058Y0051524D02*
X0044058Y0054527D01*
X0042625Y0055375D02*
X0041874Y0054624D01*
X0038872Y0057627D01*
X0041874Y0057627D01*
X0042625Y0056876D01*
X0042625Y0055375D01*
X0041874Y0054624D02*
X0038872Y0054624D01*
X0038121Y0055375D01*
X0038121Y0056876D01*
X0038872Y0057627D01*
X0038121Y0059228D02*
X0042625Y0059228D01*
X0041124Y0059228D02*
X0039622Y0061480D01*
X0041124Y0059228D02*
X0042625Y0061480D01*
X0050306Y0059228D02*
X0054810Y0059228D01*
X0053309Y0059228D02*
X0051807Y0061480D01*
X0053309Y0059228D02*
X0054810Y0061480D01*
X0054059Y0057627D02*
X0051057Y0057627D01*
X0054059Y0054624D01*
X0054810Y0055375D01*
X0054810Y0056876D01*
X0054059Y0057627D01*
X0051057Y0057627D02*
X0050306Y0056876D01*
X0050306Y0055375D01*
X0051057Y0054624D01*
X0054059Y0054624D01*
X0054810Y0053023D02*
X0054810Y0050020D01*
X0054810Y0051521D02*
X0050306Y0051521D01*
X0051807Y0050020D01*
X0046310Y0049923D02*
X0044809Y0048421D01*
X0044809Y0049172D02*
X0044809Y0046920D01*
X0046310Y0046920D02*
X0041806Y0046920D01*
X0041806Y0049172D01*
X0042557Y0049923D01*
X0044058Y0049923D01*
X0044809Y0049172D01*
X0042625Y0050020D02*
X0042625Y0053023D01*
X0041806Y0053776D02*
X0044058Y0051524D01*
X0046310Y0053776D02*
X0041806Y0053776D01*
X0017810Y0062367D02*
X0017810Y0063001D01*
X0017493Y0063318D01*
X0017493Y0064260D02*
X0016225Y0064260D01*
X0015908Y0064577D01*
X0015908Y0065211D01*
X0016225Y0065528D01*
X0017493Y0065528D01*
X0017810Y0065211D01*
X0017810Y0064577D01*
X0017493Y0064260D01*
X0016225Y0063318D02*
X0015908Y0063001D01*
X0015908Y0062367D01*
X0016225Y0062050D01*
X0017493Y0062050D01*
X0017810Y0062367D01*
X0017810Y0066470D02*
X0015908Y0066470D01*
X0017810Y0067738D01*
X0015908Y0067738D01*
X0015908Y0068680D02*
X0017810Y0069947D01*
X0015908Y0069947D01*
X0015908Y0068680D02*
X0017810Y0068680D01*
X0018127Y0070890D02*
X0018127Y0072157D01*
X0017493Y0073099D02*
X0016225Y0074367D01*
X0017493Y0074367D01*
X0017810Y0074050D01*
X0017810Y0073416D01*
X0017493Y0073099D01*
X0016225Y0073099D01*
X0015908Y0073416D01*
X0015908Y0074050D01*
X0016225Y0074367D01*
X0016225Y0075309D02*
X0016542Y0075309D01*
X0016859Y0075626D01*
X0016859Y0076260D01*
X0017176Y0076577D01*
X0017493Y0076577D01*
X0017810Y0076260D01*
X0017810Y0075626D01*
X0017493Y0075309D01*
X0017176Y0075309D01*
X0016859Y0075626D01*
X0016859Y0076260D02*
X0016542Y0076577D01*
X0016225Y0076577D01*
X0015908Y0076260D01*
X0015908Y0075626D01*
X0016225Y0075309D01*
X0004310Y0067421D02*
X0003993Y0067738D01*
X0003676Y0067738D01*
X0003359Y0067421D01*
X0003359Y0066470D01*
X0003993Y0066470D01*
X0004310Y0066787D01*
X0004310Y0067421D01*
X0003359Y0066470D02*
X0002725Y0067104D01*
X0002408Y0067738D01*
X0002725Y0065528D02*
X0002408Y0065211D01*
X0002408Y0064577D01*
X0002725Y0064260D01*
X0003042Y0064260D01*
X0003359Y0064577D01*
X0003359Y0065211D01*
X0003676Y0065528D01*
X0003993Y0065528D01*
X0004310Y0065211D01*
X0004310Y0064577D01*
X0003993Y0064260D01*
X0004627Y0064894D02*
X0002091Y0064894D01*
X0002408Y0063318D02*
X0003993Y0063318D01*
X0004310Y0063001D01*
X0004310Y0062367D01*
X0003993Y0062050D01*
X0002408Y0062050D01*
X0044742Y0118975D02*
X0043991Y0119726D01*
X0043991Y0121227D01*
X0044742Y0121978D01*
X0044742Y0123579D02*
X0043991Y0124330D01*
X0043991Y0125831D01*
X0044742Y0126582D01*
X0045492Y0126582D01*
X0046243Y0125831D01*
X0046994Y0126582D01*
X0047744Y0126582D01*
X0048495Y0125831D01*
X0048495Y0124330D01*
X0047744Y0123579D01*
X0047744Y0121978D02*
X0048495Y0121227D01*
X0048495Y0119726D01*
X0047744Y0118975D01*
X0044742Y0118975D01*
X0046243Y0125080D02*
X0046243Y0125831D01*
X0060991Y0127382D02*
X0065495Y0127382D01*
X0065495Y0125881D02*
X0065495Y0128884D01*
X0064744Y0130485D02*
X0065495Y0131236D01*
X0065495Y0133488D01*
X0062492Y0133488D01*
X0063243Y0135089D02*
X0063243Y0136590D01*
X0060991Y0135089D02*
X0060991Y0138091D01*
X0060991Y0135089D02*
X0065495Y0135089D01*
X0064744Y0130485D02*
X0062492Y0130485D01*
X0060991Y0127382D02*
X0062492Y0125881D01*
X0064744Y0124330D02*
X0065495Y0124330D01*
X0065495Y0123579D01*
X0064744Y0123579D01*
X0064744Y0124330D01*
X0064744Y0121978D02*
X0061742Y0121978D01*
X0064744Y0118975D01*
X0065495Y0119726D01*
X0065495Y0121227D01*
X0064744Y0121978D01*
X0061742Y0121978D02*
X0060991Y0121227D01*
X0060991Y0119726D01*
X0061742Y0118975D01*
X0064744Y0118975D01*
X0075442Y0091108D02*
X0076710Y0089840D01*
X0076710Y0091108D01*
X0075442Y0091108D02*
X0075442Y0089840D01*
X0075759Y0088898D02*
X0075759Y0087630D01*
X0076710Y0087630D02*
X0074808Y0087630D01*
X0074808Y0086688D02*
X0076710Y0086688D01*
X0076710Y0085420D02*
X0074808Y0085420D01*
X0075442Y0086054D01*
X0074808Y0086688D01*
X0074808Y0088898D02*
X0076710Y0088898D01*
X0076393Y0084478D02*
X0076710Y0084161D01*
X0076710Y0083527D01*
X0076393Y0083210D01*
X0076076Y0083210D01*
X0075759Y0083527D01*
X0075759Y0084161D01*
X0076076Y0084478D01*
X0076393Y0084478D01*
X0075759Y0084161D02*
X0075442Y0084478D01*
X0075125Y0084478D01*
X0074808Y0084161D01*
X0074808Y0083527D01*
X0075125Y0083210D01*
X0075442Y0083210D01*
X0075759Y0083527D01*
X0088308Y0085420D02*
X0089893Y0085420D01*
X0090210Y0085737D01*
X0090210Y0086371D01*
X0089893Y0086688D01*
X0088308Y0086688D01*
X0088625Y0087630D02*
X0088308Y0087947D01*
X0088308Y0088581D01*
X0088625Y0088898D01*
X0089259Y0088581D02*
X0089259Y0087947D01*
X0088942Y0087630D01*
X0088625Y0087630D01*
X0087991Y0088264D02*
X0090527Y0088264D01*
X0090210Y0087947D02*
X0090210Y0088581D01*
X0089893Y0088898D01*
X0089576Y0088898D01*
X0089259Y0088581D01*
X0089893Y0087630D02*
X0090210Y0087947D01*
X0089893Y0089840D02*
X0090210Y0090157D01*
X0090210Y0090791D01*
X0089893Y0091108D01*
X0088625Y0091108D01*
X0088308Y0090791D01*
X0088308Y0090157D01*
X0088625Y0089840D01*
X0088942Y0089840D01*
X0089259Y0090157D01*
X0089259Y0091108D01*
X0141310Y0093801D02*
X0142061Y0093050D01*
X0143562Y0093050D01*
X0144313Y0093801D01*
X0145914Y0093801D02*
X0146665Y0093050D01*
X0148166Y0093050D01*
X0148916Y0093801D01*
X0148916Y0095302D01*
X0148166Y0096053D01*
X0147415Y0096053D01*
X0145914Y0095302D01*
X0145914Y0097554D01*
X0148916Y0097554D01*
X0144313Y0096803D02*
X0143562Y0097554D01*
X0142061Y0097554D01*
X0141310Y0096803D01*
X0141310Y0093801D01*
X0169310Y0078553D02*
X0170811Y0080054D01*
X0170811Y0075550D01*
X0169310Y0075550D02*
X0172313Y0075550D01*
X0173914Y0076301D02*
X0176916Y0079303D01*
X0176916Y0076301D01*
X0176166Y0075550D01*
X0174665Y0075550D01*
X0173914Y0076301D01*
X0173914Y0079303D01*
X0174665Y0080054D01*
X0176166Y0080054D01*
X0176916Y0079303D01*
X0178518Y0078553D02*
X0178518Y0076301D01*
X0179268Y0075550D01*
X0181520Y0075550D01*
X0181520Y0078553D01*
X0183122Y0077802D02*
X0184623Y0077802D01*
X0183122Y0075550D02*
X0183122Y0080054D01*
X0186124Y0080054D01*
X0189408Y0067738D02*
X0189725Y0067738D01*
X0190993Y0066470D01*
X0191310Y0066470D01*
X0190993Y0065528D02*
X0190676Y0065528D01*
X0190359Y0065211D01*
X0190359Y0064577D01*
X0190042Y0064260D01*
X0189725Y0064260D01*
X0189408Y0064577D01*
X0189408Y0065211D01*
X0189725Y0065528D01*
X0189091Y0064894D02*
X0191627Y0064894D01*
X0191310Y0065211D02*
X0190993Y0065528D01*
X0191310Y0065211D02*
X0191310Y0064577D01*
X0190993Y0064260D01*
X0190993Y0063318D02*
X0189408Y0063318D01*
X0189408Y0062050D02*
X0190993Y0062050D01*
X0191310Y0062367D01*
X0191310Y0063001D01*
X0190993Y0063318D01*
X0189408Y0066470D02*
X0189408Y0067738D01*
X0202908Y0067738D02*
X0204810Y0067738D01*
X0202908Y0066470D01*
X0204810Y0066470D01*
X0204493Y0065528D02*
X0203225Y0065528D01*
X0202908Y0065211D01*
X0202908Y0064577D01*
X0203225Y0064260D01*
X0204493Y0064260D01*
X0204810Y0064577D01*
X0204810Y0065211D01*
X0204493Y0065528D01*
X0204493Y0063318D02*
X0204810Y0063001D01*
X0204810Y0062367D01*
X0204493Y0062050D01*
X0203225Y0062050D01*
X0202908Y0062367D01*
X0202908Y0063001D01*
X0203225Y0063318D01*
X0202908Y0068680D02*
X0204810Y0069947D01*
X0202908Y0069947D01*
X0202908Y0068680D02*
X0204810Y0068680D01*
X0205127Y0070890D02*
X0205127Y0072157D01*
X0204493Y0073099D02*
X0203225Y0074367D01*
X0204493Y0074367D01*
X0204810Y0074050D01*
X0204810Y0073416D01*
X0204493Y0073099D01*
X0203225Y0073099D01*
X0202908Y0073416D01*
X0202908Y0074050D01*
X0203225Y0074367D01*
X0203225Y0075309D02*
X0203542Y0075309D01*
X0203859Y0075626D01*
X0203859Y0076260D01*
X0204176Y0076577D01*
X0204493Y0076577D01*
X0204810Y0076260D01*
X0204810Y0075626D01*
X0204493Y0075309D01*
X0204176Y0075309D01*
X0203859Y0075626D01*
X0203859Y0076260D02*
X0203542Y0076577D01*
X0203225Y0076577D01*
X0202908Y0076260D01*
X0202908Y0075626D01*
X0203225Y0075309D01*
X0180370Y0157050D02*
X0178868Y0157050D01*
X0178118Y0157801D01*
X0181120Y0160803D01*
X0181120Y0157801D01*
X0180370Y0157050D01*
X0178118Y0157801D02*
X0178118Y0160803D01*
X0178868Y0161554D01*
X0180370Y0161554D01*
X0181120Y0160803D01*
X0176516Y0160803D02*
X0176516Y0160053D01*
X0175766Y0159302D01*
X0176516Y0158551D01*
X0176516Y0157801D01*
X0175766Y0157050D01*
X0174265Y0157050D01*
X0173514Y0157801D01*
X0171913Y0157801D02*
X0171913Y0158551D01*
X0171162Y0159302D01*
X0170411Y0159302D01*
X0171162Y0159302D02*
X0171913Y0160053D01*
X0171913Y0160803D01*
X0171162Y0161554D01*
X0169661Y0161554D01*
X0168910Y0160803D01*
X0168910Y0157801D02*
X0169661Y0157050D01*
X0171162Y0157050D01*
X0171913Y0157801D01*
X0173514Y0160803D02*
X0174265Y0161554D01*
X0175766Y0161554D01*
X0176516Y0160803D01*
X0175766Y0159302D02*
X0175015Y0159302D01*
X0173416Y0165550D02*
X0170414Y0165550D01*
X0171915Y0165550D02*
X0171915Y0170054D01*
X0170414Y0168553D01*
X0168813Y0169303D02*
X0168813Y0167802D01*
X0168062Y0167051D01*
X0165810Y0167051D01*
X0165810Y0165550D02*
X0165810Y0170054D01*
X0168062Y0170054D01*
X0168813Y0169303D01*
X0167311Y0167051D02*
X0168813Y0165550D01*
X0155936Y0182050D02*
X0152934Y0182050D01*
X0155936Y0185053D01*
X0155936Y0185803D01*
X0155185Y0186554D01*
X0153684Y0186554D01*
X0152934Y0185803D01*
X0152540Y0185897D02*
X0153290Y0186648D01*
X0153290Y0188149D01*
X0152540Y0188900D01*
X0151038Y0190501D02*
X0151038Y0193504D01*
X0148786Y0192753D02*
X0151038Y0190501D01*
X0149537Y0188900D02*
X0148786Y0188149D01*
X0148786Y0186648D01*
X0149537Y0185897D01*
X0152540Y0185897D01*
X0151332Y0185803D02*
X0151332Y0182801D01*
X0150582Y0182050D01*
X0149080Y0182050D01*
X0148330Y0182801D01*
X0151332Y0185803D01*
X0150582Y0186554D01*
X0149080Y0186554D01*
X0148330Y0185803D01*
X0148330Y0182801D01*
X0146728Y0185803D02*
X0143726Y0182801D01*
X0143726Y0182050D01*
X0142124Y0182050D02*
X0139122Y0182050D01*
X0140623Y0182050D02*
X0140623Y0186554D01*
X0139122Y0185053D01*
X0138002Y0184618D02*
X0141004Y0184618D01*
X0141755Y0185368D01*
X0141755Y0186870D01*
X0141004Y0187620D01*
X0141755Y0189222D02*
X0141755Y0192224D01*
X0141755Y0190723D02*
X0137251Y0190723D01*
X0138752Y0189222D01*
X0137520Y0190301D02*
X0136770Y0189550D01*
X0135268Y0189550D01*
X0134518Y0190301D01*
X0134038Y0190501D02*
X0134038Y0192002D01*
X0134518Y0193303D02*
X0135268Y0194054D01*
X0136770Y0194054D01*
X0137520Y0193303D01*
X0137520Y0192553D01*
X0136770Y0191802D01*
X0137520Y0191051D01*
X0137520Y0190301D01*
X0136290Y0190501D02*
X0131786Y0190501D01*
X0131786Y0193504D01*
X0132166Y0194054D02*
X0132916Y0193303D01*
X0132166Y0194054D02*
X0130665Y0194054D01*
X0129914Y0193303D01*
X0129914Y0192553D01*
X0130665Y0191802D01*
X0132166Y0191802D01*
X0132916Y0191051D01*
X0132916Y0190301D01*
X0132166Y0189550D01*
X0130665Y0189550D01*
X0129914Y0190301D01*
X0128313Y0190301D02*
X0128313Y0194054D01*
X0125310Y0194054D02*
X0125310Y0190301D01*
X0126061Y0189550D01*
X0127562Y0189550D01*
X0128313Y0190301D01*
X0124755Y0189222D02*
X0120251Y0189222D01*
X0120251Y0192224D01*
X0122503Y0190723D02*
X0122503Y0189222D01*
X0121752Y0187620D02*
X0124755Y0187620D01*
X0124755Y0185368D01*
X0124004Y0184618D01*
X0121752Y0184618D01*
X0121433Y0185800D02*
X0123012Y0185800D01*
X0125310Y0186554D02*
X0126811Y0185053D01*
X0128313Y0186554D01*
X0128313Y0182050D01*
X0129914Y0182801D02*
X0130665Y0182050D01*
X0132166Y0182050D01*
X0132916Y0182801D01*
X0131786Y0182795D02*
X0133288Y0181293D01*
X0134518Y0182050D02*
X0134518Y0186554D01*
X0136770Y0186554D01*
X0137520Y0185803D01*
X0137520Y0184302D01*
X0136770Y0183551D01*
X0134518Y0183551D01*
X0136290Y0184296D02*
X0136290Y0181293D01*
X0136290Y0182795D02*
X0131786Y0182795D01*
X0129914Y0182801D02*
X0129914Y0185803D01*
X0130665Y0186554D01*
X0132166Y0186554D01*
X0132916Y0185803D01*
X0133288Y0185897D02*
X0135540Y0185897D01*
X0136290Y0186648D01*
X0136290Y0188900D01*
X0133288Y0188900D01*
X0131415Y0188799D02*
X0131415Y0194804D01*
X0136019Y0191802D02*
X0136770Y0191802D01*
X0138002Y0187620D02*
X0137251Y0186870D01*
X0137251Y0185368D01*
X0138002Y0184618D01*
X0136290Y0179742D02*
X0136290Y0178991D01*
X0135540Y0178991D01*
X0135540Y0179742D01*
X0136290Y0179742D01*
X0135540Y0177390D02*
X0136290Y0176639D01*
X0136290Y0175138D01*
X0135540Y0174387D01*
X0132537Y0177390D01*
X0135540Y0177390D01*
X0135540Y0174387D02*
X0132537Y0174387D01*
X0131786Y0175138D01*
X0131786Y0176639D01*
X0132537Y0177390D01*
X0124755Y0177712D02*
X0124755Y0178462D01*
X0124004Y0178462D01*
X0124004Y0177712D01*
X0124755Y0177712D01*
X0124004Y0176110D02*
X0124755Y0175360D01*
X0124755Y0173859D01*
X0124004Y0173108D01*
X0121002Y0176110D01*
X0124004Y0176110D01*
X0121002Y0176110D02*
X0120251Y0175360D01*
X0120251Y0173859D01*
X0121002Y0173108D01*
X0124004Y0173108D01*
X0119458Y0168054D02*
X0117957Y0168054D01*
X0117206Y0167303D01*
X0115605Y0167303D02*
X0114854Y0168054D01*
X0113353Y0168054D01*
X0112602Y0167303D01*
X0112602Y0164301D01*
X0113353Y0163550D01*
X0114854Y0163550D01*
X0115605Y0164301D01*
X0117206Y0163550D02*
X0120209Y0166553D01*
X0120209Y0167303D01*
X0119458Y0168054D01*
X0120209Y0163550D02*
X0117206Y0163550D01*
X0117206Y0180550D02*
X0117206Y0185054D01*
X0120209Y0185054D01*
X0118707Y0182802D02*
X0117206Y0182802D01*
X0115605Y0183553D02*
X0115605Y0180550D01*
X0113353Y0180550D01*
X0112602Y0181301D01*
X0112602Y0183553D01*
X0113687Y0185800D02*
X0111433Y0185800D01*
X0104314Y0180300D02*
X0104161Y0180499D01*
X0104013Y0180701D01*
X0103870Y0180906D01*
X0103732Y0181115D01*
X0103599Y0181327D01*
X0103471Y0181542D01*
X0103349Y0181760D01*
X0103231Y0181981D01*
X0103119Y0182205D01*
X0103012Y0182431D01*
X0102911Y0182660D01*
X0102815Y0182891D01*
X0102724Y0183125D01*
X0102639Y0183360D01*
X0102560Y0183598D01*
X0102487Y0183837D01*
X0102419Y0184078D01*
X0102357Y0184320D01*
X0102301Y0184564D01*
X0102250Y0184810D01*
X0102206Y0185056D01*
X0102167Y0185303D01*
X0102135Y0185551D01*
X0102108Y0185800D01*
X0103687Y0185800D01*
X0103344Y0185054D02*
X0104095Y0184303D01*
X0101092Y0181301D01*
X0101843Y0180550D01*
X0103344Y0180550D01*
X0104095Y0181301D01*
X0104095Y0184303D01*
X0103344Y0185054D02*
X0101843Y0185054D01*
X0101092Y0184303D01*
X0101092Y0181301D01*
X0104314Y0180300D02*
X0120806Y0180300D01*
X0121752Y0180014D02*
X0120251Y0181515D01*
X0124755Y0181515D01*
X0125310Y0182050D02*
X0125310Y0186554D01*
X0124755Y0183016D02*
X0124755Y0180014D01*
X0120806Y0180300D02*
X0120961Y0180502D01*
X0121111Y0180707D01*
X0121257Y0180916D01*
X0121397Y0181129D01*
X0121532Y0181345D01*
X0121661Y0181564D01*
X0121785Y0181786D01*
X0121904Y0182011D01*
X0122017Y0182239D01*
X0122125Y0182469D01*
X0122227Y0182702D01*
X0122324Y0182938D01*
X0122415Y0183176D01*
X0122500Y0183415D01*
X0122579Y0183657D01*
X0122652Y0183901D01*
X0122719Y0184146D01*
X0122781Y0184393D01*
X0122836Y0184642D01*
X0122885Y0184892D01*
X0122928Y0185142D01*
X0122965Y0185394D01*
X0122996Y0185647D01*
X0123021Y0185900D01*
X0123040Y0186154D01*
X0123053Y0186408D01*
X0123059Y0186662D01*
X0123059Y0186917D01*
X0123053Y0187171D01*
X0123041Y0187426D01*
X0123023Y0187679D01*
X0122999Y0187933D01*
X0122968Y0188185D01*
X0122932Y0188437D01*
X0122889Y0188688D01*
X0122840Y0188938D01*
X0122785Y0189186D01*
X0122724Y0189433D01*
X0122658Y0189679D01*
X0122585Y0189923D01*
X0122506Y0190165D01*
X0122422Y0190405D01*
X0122331Y0190643D01*
X0122235Y0190879D01*
X0122134Y0191112D01*
X0122026Y0191343D01*
X0121914Y0191571D01*
X0121795Y0191796D01*
X0121671Y0192018D01*
X0121542Y0192238D01*
X0121408Y0192454D01*
X0121268Y0192667D01*
X0121123Y0192876D01*
X0120974Y0193082D01*
X0120819Y0193284D01*
X0120659Y0193482D01*
X0120495Y0193676D01*
X0120326Y0193867D01*
X0120153Y0194053D01*
X0119975Y0194235D01*
X0119792Y0194412D01*
X0119606Y0194585D01*
X0119415Y0194754D01*
X0119220Y0194918D01*
X0119021Y0195077D01*
X0118819Y0195231D01*
X0118613Y0195380D01*
X0118403Y0195524D01*
X0118190Y0195663D01*
X0117973Y0195797D01*
X0117754Y0195926D01*
X0117531Y0196049D01*
X0117305Y0196166D01*
X0117077Y0196279D01*
X0116846Y0196385D01*
X0116612Y0196486D01*
X0116376Y0196582D01*
X0116138Y0196671D01*
X0115898Y0196755D01*
X0115656Y0196833D01*
X0109464Y0196833D02*
X0109220Y0196755D01*
X0108978Y0196670D01*
X0108739Y0196580D01*
X0108501Y0196484D01*
X0108266Y0196382D01*
X0108033Y0196274D01*
X0107803Y0196161D01*
X0107576Y0196042D01*
X0107352Y0195918D01*
X0107131Y0195788D01*
X0106914Y0195653D01*
X0106699Y0195512D01*
X0106488Y0195366D01*
X0106281Y0195216D01*
X0106078Y0195060D01*
X0105878Y0194899D01*
X0105682Y0194734D01*
X0105491Y0194564D01*
X0105303Y0194389D01*
X0105120Y0194209D01*
X0104942Y0194026D01*
X0104767Y0193837D01*
X0104598Y0193645D01*
X0104433Y0193449D01*
X0104273Y0193248D01*
X0104119Y0193044D01*
X0103969Y0192836D01*
X0103824Y0192625D01*
X0103684Y0192410D01*
X0103550Y0192192D01*
X0103421Y0191970D01*
X0103298Y0191746D01*
X0103180Y0191518D01*
X0103067Y0191288D01*
X0102961Y0191055D01*
X0102860Y0190819D01*
X0102764Y0190581D01*
X0102675Y0190341D01*
X0102592Y0190099D01*
X0102514Y0189854D01*
X0102443Y0189608D01*
X0102377Y0189360D01*
X0102318Y0189111D01*
X0102264Y0188861D01*
X0102217Y0188609D01*
X0102176Y0188356D01*
X0102141Y0188102D01*
X0102112Y0187847D01*
X0102090Y0187592D01*
X0102074Y0187336D01*
X0102064Y0187080D01*
X0102060Y0186824D01*
X0102063Y0186567D01*
X0102071Y0186311D01*
X0102086Y0186055D01*
X0102108Y0185800D01*
X0105696Y0181301D02*
X0106447Y0181301D01*
X0106447Y0180550D01*
X0105696Y0180550D01*
X0105696Y0181301D01*
X0107998Y0180550D02*
X0111001Y0180550D01*
X0109499Y0180550D02*
X0109499Y0185054D01*
X0107998Y0183553D01*
X0143726Y0186554D02*
X0146728Y0186554D01*
X0146728Y0185803D01*
X0148786Y0192753D02*
X0153290Y0192753D01*
X0164306Y0200051D02*
X0168810Y0200051D01*
X0168810Y0198550D02*
X0168810Y0201553D01*
X0168059Y0203154D02*
X0165057Y0206156D01*
X0168059Y0206156D01*
X0168810Y0205406D01*
X0168810Y0203905D01*
X0168059Y0203154D01*
X0165057Y0203154D01*
X0164306Y0203905D01*
X0164306Y0205406D01*
X0165057Y0206156D01*
X0165807Y0207758D02*
X0168059Y0207758D01*
X0168810Y0208508D01*
X0168810Y0210760D01*
X0165807Y0210760D01*
X0166558Y0212362D02*
X0166558Y0213863D01*
X0168810Y0212362D02*
X0164306Y0212362D01*
X0164306Y0215364D01*
X0164306Y0200051D02*
X0165807Y0198550D01*
X0150559Y0178156D02*
X0149809Y0178156D01*
X0149058Y0177406D01*
X0149058Y0175154D01*
X0150559Y0175154D01*
X0151310Y0175905D01*
X0151310Y0177406D01*
X0150559Y0178156D01*
X0147557Y0176655D02*
X0149058Y0175154D01*
X0147557Y0176655D02*
X0146806Y0178156D01*
X0147557Y0173553D02*
X0146806Y0172802D01*
X0146806Y0171301D01*
X0147557Y0170550D01*
X0150559Y0170550D01*
X0151310Y0171301D01*
X0151310Y0172802D01*
X0150559Y0173553D01*
X0189995Y0180550D02*
X0189995Y0185054D01*
X0192247Y0185054D01*
X0192998Y0184303D01*
X0192998Y0182802D01*
X0192247Y0182051D01*
X0189995Y0182051D01*
X0191496Y0182051D02*
X0192998Y0180550D01*
X0194599Y0180550D02*
X0197602Y0180550D01*
X0199203Y0180550D02*
X0201455Y0180550D01*
X0202205Y0181301D01*
X0202205Y0184303D01*
X0201455Y0185054D01*
X0199203Y0185054D01*
X0199203Y0180550D01*
X0196100Y0182802D02*
X0194599Y0182802D01*
X0194599Y0185054D02*
X0194599Y0180550D01*
X0194599Y0185054D02*
X0197602Y0185054D01*
X0197602Y0188550D02*
X0194599Y0188550D01*
X0194599Y0193054D01*
X0197602Y0193054D01*
X0199203Y0193054D02*
X0201455Y0193054D01*
X0202205Y0192303D01*
X0202205Y0189301D01*
X0201455Y0188550D01*
X0199203Y0188550D01*
X0199203Y0193054D01*
X0196100Y0190802D02*
X0194599Y0190802D01*
X0192998Y0188550D02*
X0189995Y0188550D01*
X0189995Y0193054D01*
X0203807Y0191553D02*
X0205308Y0193054D01*
X0205308Y0188550D01*
X0203807Y0188550D02*
X0206809Y0188550D01*
D14*
X0154560Y0081800D03*
D15*
X0162560Y0183800D03*
D16*
X0107395Y0199500D02*
X0104326Y0199500D01*
X0104326Y0204104D01*
X0107395Y0204104D01*
X0105861Y0201802D02*
X0104326Y0201802D01*
X0102791Y0203337D02*
X0102024Y0204104D01*
X0099722Y0204104D01*
X0099722Y0199500D01*
X0102024Y0199500D01*
X0102791Y0200267D01*
X0102791Y0203337D01*
X0098188Y0204104D02*
X0096653Y0204104D01*
X0097420Y0204104D02*
X0097420Y0199500D01*
X0096653Y0199500D02*
X0098188Y0199500D01*
X0095118Y0199500D02*
X0092049Y0199500D01*
X0092049Y0204104D01*
X0090514Y0203337D02*
X0089747Y0204104D01*
X0088212Y0204104D01*
X0087445Y0203337D01*
X0087445Y0202569D01*
X0088212Y0201802D01*
X0089747Y0201802D01*
X0090514Y0201035D01*
X0090514Y0200267D01*
X0089747Y0199500D01*
X0088212Y0199500D01*
X0087445Y0200267D01*
X0059722Y0199500D02*
X0056653Y0199500D01*
X0059722Y0202569D01*
X0059722Y0203337D01*
X0058955Y0204104D01*
X0057420Y0204104D01*
X0056653Y0203337D01*
X0055118Y0203337D02*
X0054351Y0204104D01*
X0052816Y0204104D01*
X0052049Y0203337D01*
X0052049Y0202569D01*
X0052816Y0201802D01*
X0054351Y0201802D01*
X0055118Y0201035D01*
X0055118Y0200267D01*
X0054351Y0199500D01*
X0052816Y0199500D01*
X0052049Y0200267D01*
X0050514Y0200267D02*
X0049747Y0199500D01*
X0048212Y0199500D01*
X0047445Y0200267D01*
X0047445Y0204104D01*
X0050514Y0204104D02*
X0050514Y0200267D01*
X0053584Y0198733D02*
X0053584Y0204871D01*
X0039804Y0160561D02*
X0039804Y0155957D01*
X0038269Y0155957D02*
X0041339Y0155957D01*
X0038269Y0159026D02*
X0039804Y0160561D01*
X0036735Y0160561D02*
X0035200Y0160561D01*
X0035967Y0160561D02*
X0035967Y0156724D01*
X0035200Y0155957D01*
X0034433Y0155957D01*
X0033666Y0156724D01*
D17*
X0163360Y0159300D03*
X0191760Y0159300D03*
X0164260Y0016800D03*
X0135860Y0016800D03*
D18*
X0052560Y0044470D03*
X0040375Y0044470D03*
X0040375Y0072870D03*
X0052560Y0072870D03*
D19*
X0108279Y0073057D02*
X0114585Y0073057D01*
X0114585Y0072006D02*
X0114585Y0074108D01*
X0113534Y0076303D02*
X0114585Y0077354D01*
X0114585Y0079456D01*
X0113534Y0080507D01*
X0113534Y0082749D02*
X0114585Y0083800D01*
X0114585Y0085901D01*
X0113534Y0086952D01*
X0112483Y0086952D01*
X0111432Y0085901D01*
X0111432Y0084851D01*
X0111432Y0085901D02*
X0110381Y0086952D01*
X0109330Y0086952D01*
X0108279Y0085901D01*
X0108279Y0083800D01*
X0109330Y0082749D01*
X0109330Y0080507D02*
X0108279Y0079456D01*
X0108279Y0077354D01*
X0109330Y0076303D01*
X0113534Y0076303D01*
X0108279Y0074108D02*
X0108279Y0072006D01*
X0109330Y0069764D02*
X0111432Y0069764D01*
X0112483Y0068713D01*
X0112483Y0065561D01*
X0114585Y0065561D02*
X0108279Y0065561D01*
X0108279Y0068713D01*
X0109330Y0069764D01*
X0109330Y0089194D02*
X0108279Y0090245D01*
X0108279Y0092347D01*
X0109330Y0093398D01*
X0110381Y0093398D01*
X0114585Y0089194D01*
X0114585Y0093398D01*
X0114585Y0095640D02*
X0108279Y0095640D01*
X0110381Y0097742D01*
X0108279Y0099843D01*
X0114585Y0099843D01*
X0114585Y0102085D02*
X0108279Y0106289D01*
X0109330Y0108531D02*
X0108279Y0109582D01*
X0108279Y0111683D01*
X0109330Y0112734D01*
X0110381Y0112734D01*
X0114585Y0108531D01*
X0114585Y0112734D01*
X0113534Y0114976D02*
X0114585Y0116027D01*
X0114585Y0118129D01*
X0113534Y0119180D01*
X0111432Y0119180D01*
X0110381Y0118129D01*
X0110381Y0117078D01*
X0111432Y0114976D01*
X0108279Y0114976D01*
X0108279Y0119180D01*
X0109330Y0121422D02*
X0108279Y0122473D01*
X0108279Y0124574D01*
X0109330Y0125625D01*
X0113534Y0121422D01*
X0114585Y0122473D01*
X0114585Y0124574D01*
X0113534Y0125625D01*
X0109330Y0125625D01*
X0108279Y0127867D02*
X0108279Y0132071D01*
X0110381Y0134313D02*
X0108279Y0136415D01*
X0114585Y0136415D01*
X0114585Y0138516D02*
X0114585Y0134313D01*
X0111432Y0129969D02*
X0111432Y0127867D01*
X0114585Y0127867D02*
X0108279Y0127867D01*
X0109330Y0121422D02*
X0113534Y0121422D01*
X0114585Y0106289D02*
X0108279Y0102085D01*
X0109330Y0140758D02*
X0108279Y0141809D01*
X0108279Y0143911D01*
X0109330Y0144962D01*
X0110381Y0144962D01*
X0114585Y0140758D01*
X0114585Y0144962D01*
X0113534Y0147204D02*
X0112483Y0147204D01*
X0111432Y0148255D01*
X0111432Y0150356D01*
X0112483Y0151407D01*
X0113534Y0151407D01*
X0114585Y0150356D01*
X0114585Y0148255D01*
X0113534Y0147204D01*
X0111432Y0148255D02*
X0110381Y0147204D01*
X0109330Y0147204D01*
X0108279Y0148255D01*
X0108279Y0150356D01*
X0109330Y0151407D01*
X0110381Y0151407D01*
X0111432Y0150356D01*
X0111432Y0153649D02*
X0111432Y0156802D01*
X0112483Y0157853D01*
X0113534Y0157853D01*
X0114585Y0156802D01*
X0114585Y0153649D01*
X0108279Y0153649D01*
X0108279Y0156802D01*
X0109330Y0157853D01*
X0110381Y0157853D01*
X0111432Y0156802D01*
X0110532Y0167544D02*
X0110532Y0175951D01*
X0109481Y0174900D02*
X0111583Y0174900D01*
X0112634Y0173849D01*
X0111583Y0171748D02*
X0109481Y0171748D01*
X0108430Y0172798D01*
X0108430Y0173849D01*
X0109481Y0174900D01*
X0106188Y0174900D02*
X0106188Y0169646D01*
X0105137Y0168595D01*
X0103036Y0168595D01*
X0101985Y0169646D01*
X0101985Y0174900D01*
X0108430Y0169646D02*
X0109481Y0168595D01*
X0111583Y0168595D01*
X0112634Y0169646D01*
X0112634Y0170697D01*
X0111583Y0171748D01*
X0114876Y0172798D02*
X0116978Y0174900D01*
X0116978Y0168595D01*
X0119079Y0168595D02*
X0114876Y0168595D01*
D20*
X0094174Y0180835D02*
X0094174Y0197765D01*
X0060316Y0197765D01*
X0060316Y0180835D01*
X0094174Y0180835D01*
X0085119Y0197174D02*
X0085119Y0205048D01*
X0081182Y0205048D01*
X0081182Y0203080D01*
X0081182Y0205048D02*
X0077245Y0205048D01*
X0077245Y0197174D01*
D21*
X0080060Y0091800D02*
X0077560Y0089300D01*
X0077560Y0064300D01*
X0080060Y0061800D01*
X0085060Y0061800D01*
X0087560Y0064300D01*
X0087560Y0089300D01*
X0085060Y0091800D01*
X0080060Y0091800D01*
X0093190Y0026800D02*
X0063190Y0026800D01*
X0063190Y0006800D01*
X0093190Y0006800D01*
X0093190Y0026800D01*
X0056950Y0026485D02*
X0056950Y0006485D01*
X0026950Y0006485D01*
X0026950Y0026485D01*
X0056950Y0026485D01*
M02*
